<?xml version="1.0" standalone="no"?>
<!DOCTYPE svg PUBLIC "-//W3C//DTD SVG 20010904//EN"
 "http://www.w3.org/TR/2001/REC-SVG-20010904/DTD/svg10.dtd">
<svg version="1.0" xmlns="http://www.w3.org/2000/svg"
 width="97.000000pt" height="98.000000pt" viewBox="0 0 97.000000 98.000000"
 preserveAspectRatio="xMidYMid meet">

<g transform="translate(0.000000,98.000000) scale(0.100000,-0.100000)"
fill="#000000" stroke="none">
<path d="M468 818 l-55 -103 -144 -5 -144 -5 -55 -106 -54 -107 54 -106 55
-106 142 0 142 0 53 -102 53 -103 150 -3 150 -2 53 105 53 104 -55 108 -55
107 55 106 55 105 -52 108 -53 107 -147 0 -147 0 -54 -102z m233 -78 c30 -17
22 -29 -15 -23 -30 5 -34 2 -40 -21 -4 -15 -1 -36 5 -47 9 -17 17 -20 41 -15
21 4 28 2 26 -7 -7 -18 -72 -21 -87 -3 -7 8 -11 34 -9 58 2 34 8 45 28 55 30
15 27 15 51 3z m-408 -191 c29 -16 37 -28 37 -61 0 -39 -32 -68 -75 -68 l-35
0 0 70 c0 68 1 70 26 70 14 0 35 -5 47 -11z m439 -56 c-40 -2 -103 -2 -140 0
-37 2 -4 3 73 3 77 0 107 -2 67 -3z m-16 -165 c5 -8 0 -9 -16 -5 -12 3 -33 2
-46 -3 -19 -7 -24 -17 -24 -43 0 -39 15 -57 47 -57 16 0 23 6 23 20 0 11 -6
20 -14 20 -8 0 -18 5 -21 10 -4 6 7 10 24 10 29 0 31 -3 31 -35 0 -29 -4 -36
-26 -41 -72 -18 -120 68 -68 121 18 18 80 20 90 3z"/>
<path d="M240 490 c0 -46 2 -50 25 -50 24 0 45 25 45 54 0 21 -28 46 -51 46
-16 0 -19 -7 -19 -50z"/>
</g>
</svg>
