<svg xmlns="http://www.w3.org/2000/svg" aria-hidden="true" style="position:absolute;width:0;height:0;overflow:hidden"><defs><symbol id="icon-arrow-diag" viewBox="0 0 31 32"><path d="M11.796 8.16h10.691a.712.712 0 0 1 .713.713v10.691a.713.713 0 1 1-1.426 0v-8.97L8.736 23.632a.713.713 0 0 1-1.008-1.008L20.766 9.586h-8.97a.713.713 0 1 1 0-1.426z"/></symbol><symbol id="icon-arrow-down" viewBox="0 0 32 32"><path stroke-width="1.6" d="m8 12 8 8 8-8"/></symbol><symbol id="icon-book" viewBox="0 0 33 32"><path fill="#343434" d="M19.837 3.013a38.652 38.652 0 0 0-6.667.96c-.333 0-2.76.36-3.04.48-.052.012-.1.035-.143.067s-.077.073-.102.12a.382.382 0 0 0-.022.307c.173.507 4.373 0 10.173-.467 1.733-.227 2.933-.587 4.56-.907a13.645 13.645 0 0 0 2.52-.613.417.417 0 0 0-.2-.574c-.24-.253-.507-.107-7.08.627z" style="fill:var(--color1, #343434)"/><path fill="#343434" d="M28.837 21.333V5.853c0-.133.2-.667-.387-.667-.12 0-2.2.413-2.333.44l-4.36.347c-2.773.267-5.56.36-8.333.547-3.773.267-4 .507-5.547.307-.573-.08-1.147-.147-1.333-.493a1.195 1.195 0 0 1 .333-1.333c1.373-1.68 4.187-2.333 6.307-2.853 4.893-1.187 6.573-.747 10.013-.973 1.96-.133 3.2-.267 3.067-.867a.383.383 0 0 0-.467-.306c-4.76 1.027-7.293-1.013-16.68 1.853-4.867 1.547-6.2 6.667.013 6.533a96.037 96.037 0 0 0-.6 19.8c0 1.08 0 1.733.4 1.867.787.227.627-1 .587-1.867 0-7.787.36-5.187.373-14.667 0-5.787 0-5.24.133-5.253 4.28-.613 13.333-1.133 17.853-2.067-.4 26.667-.147 10.733-.093 17.987a5.07 5.07 0 0 1-.08 1.107c-.16 1-11.373 3.933-13.827 4.533-3.133.787-5.547 1.013-8.507-.347-1.333-2.773-.827-17.267-.573-20a.39.39 0 0 0-.632-.342.39.39 0 0 0-.142.262c-.333 2.747-1.2 16.787-.107 20.2.293.933.693 1.12 1.52 1.467a10.847 10.847 0 0 0 5.48.933 67.32 67.32 0 0 0 13.333-3.653 27.462 27.462 0 0 0 3.427-1.16c2.253-1.213 1.187-3.48 1.16-5.853z" style="fill:var(--color1, #343434)"/><path fill="#036" d="M13.583 17.613c.84.227 1.72 0 7.587-1.027.88-.16 2.24-.24 2.667-1.08a5.014 5.014 0 0 0 .147-2.453c0-.64.76-3.493-.853-3.427-.08 0-9.627 1.493-10.227 1.507a.442.442 0 0 0-.44.44c0 .347.12-.36 0 1.787.107 1.493-.627 3.747 1.12 4.253zM13.463 12c1.013 0-1.733.08 9.587-.893-.307 4.387-.107 3.613-2.093 4-6.547 1.333-7.013 1.627-7.293 1.333s-.08-2.307-.173-3.107c0-.08-.04-.867-.027-1.333zM22.623 20a.516.516 0 0 0-.02-.548.527.527 0 0 0-.5-.225c-.387 0-1.333.107-1.573.107-2.062-.038-4.121.2-6.12.707-.827-.093-.64.493-.213.707 1.067.907 8.147-.44 8.427-.747zM14.397 26.053c.305.002.609-.029.907-.093a25.554 25.554 0 0 0 3.04-.253c1.587-.267 3.067-.827 4.493-.947a.448.448 0 0 0 .375-.447.458.458 0 0 0-.375-.447c-3.627-.307-8.587 1.333-8.693 1.64s.067.453.253.547z" style="fill:var(--color2, #036)"/></symbol><symbol id="icon-light" viewBox="0 0 32 32"><path fill="#036" d="M15.898 5.138a.466.466 0 0 0 .468-.453c.143-.566.255-1.14.334-1.719.02-.382.02-.764 0-1.146a4.646 4.646 0 0 0-.334-1.546.39.39 0 0 0-.454-.266c-.107 0-.28.107-.414.413-.117.439-.211.883-.28 1.332-.02.382-.02.764 0 1.146 0 .586.187 1.132.267 1.705a.472.472 0 0 0 .093.355.475.475 0 0 0 .321.178zM8.009 8.336a.463.463 0 0 0 0-.652 11.22 11.22 0 0 0-1.335-1.705c-.347-.32-.761-.56-1.135-.853l-1.068-.533a2.515 2.515 0 0 0-.467-.226c-.374 0-.534.107-.561.266a.317.317 0 0 0 0 .306c.373.468.774.913 1.201 1.332.347.306.667.639 1.041.919s1.148.733 1.695 1.159a.465.465 0 0 0 .627-.013zM5.073 15.73a7.456 7.456 0 0 0-1.962-.226 5.924 5.924 0 0 0-1.095.107 8.066 8.066 0 0 1-1.495.267.417.417 0 0 0-.314.041.409.409 0 0 0-.149.561.404.404 0 0 0 .251.185c.625.297 1.31.448 2.002.44a6.201 6.201 0 0 0 1.121-.12c.574-.107 1.081-.293 1.562-.333a.48.48 0 0 0 .507-.426.465.465 0 0 0-.427-.493zM28.219 4.006a.414.414 0 0 0-.574 0c-.507.28-1.014.506-1.508.839-.2.135-.392.282-.574.44l-.507.506c-.387.426-.734.866-1.108 1.332a.453.453 0 0 0 .32.779.464.464 0 0 0 .32-.127c.507-.293.988-.56 1.468-.893l.587-.426c.186-.155.36-.324.521-.506.387-.426.694-.893 1.055-1.332a.395.395 0 0 0 .106-.475.395.395 0 0 0-.106-.137zM30.768 15.73c-.16 0-.307-.067-.467-.08a3.715 3.715 0 0 0-.667 0c-.587.08-1.108.28-1.682.413a.468.468 0 0 0-.278.761c.071.084.17.14.278.159.576.122 1.161.198 1.749.227.23-.004.458-.035.681-.093.155-.037.307-.086.454-.147.312-.082.612-.203.894-.36.174-.16.294-.28.267-.426.04-.413-.534-.333-1.228-.453z" style="fill:var(--color2, #036)"/><path fill="#343434" d="M20.023 8.003a8.935 8.935 0 0 0-6.234-.773 9.339 9.339 0 0 0-6.567 6.862 8.19 8.19 0 0 0 0 3.464A8.587 8.587 0 0 0 8.557 20.7c.193.274.412.528.654.759.457.425.974.78 1.535 1.052.05.192.077.388.08.586v1.812a2.097 2.097 0 0 0-.761 1.066c-.12.383-.148.79-.08 1.186.04.324.164.632.36.893.138.166.3.309.481.426a2.301 2.301 0 0 0-.507 1.332 1.775 1.775 0 0 0 .494 1.466c.349.315.779.527 1.241.613.604.1 1.218.131 1.829.093.493.002.985-.048 1.468-.147.049-.045.086-.102.11-.164s.031-.13.024-.196a.425.425 0 0 0-.214-.319 3.385 3.385 0 0 0-.587 0h-.801a7.813 7.813 0 0 1-1.548-.16 1.466 1.466 0 0 1-.707-.413.677.677 0 0 1-.12-.586 1.334 1.334 0 0 1 1.027-1.173c.4 0 1.175.2 2.096.266.342.02.685.02 1.028 0h.908a21.346 21.346 0 0 0 2.122-.466l.36-.093a.939.939 0 0 1 0 .28c.004.322-.05.643-.16.946-.235.42-.6.752-1.041.946a1.626 1.626 0 0 1-1.335.28.482.482 0 0 0-.627.213c-.051.11-.057.235-.018.35s.123.209.231.263a2.586 2.586 0 0 0 2.176-.2 3.391 3.391 0 0 0 1.749-1.426 3.539 3.539 0 0 0 .307-1.679 1.687 1.687 0 0 0-.387-1.013c.192-.162.355-.355.481-.573.137-.252.188-.542.147-.826a2.018 2.018 0 0 0-.921-1.439c0-.44-.093-.933-.08-1.412a1.54 1.54 0 0 1 0-.346c.291-.095.566-.235.814-.413.441-.32.894-.64 1.335-.999.295-.256.567-.537.814-.839a9.445 9.445 0 0 0 1.695-3.744 8.627 8.627 0 0 0 0-4.17 7.992 7.992 0 0 0-4.205-4.729zm-3.484 19.478h-1.935c-.953.114-1.917.114-2.87 0-.107 0-.174-.133-.24-.213a.646.646 0 0 1 0-.24 1.17 1.17 0 0 1 0-.533.672.672 0 0 1 .254-.32 2.34 2.34 0 0 1 .948-.333 17.44 17.44 0 0 1 1.895-.173 14.287 14.287 0 0 1 3.364-.067c.28 0 1.241.453 1.175.919-.063.275-.208.525-.415.717s-.467.318-.747.362c-.414 0-.894-.093-1.428-.12zm6.434-10.818a8.259 8.259 0 0 1-1.335 3.304 6.43 6.43 0 0 1-.641.719c-.379.345-.78.666-1.201.959-.134.107-.681.28-.868.44a.603.603 0 0 0-.227.32 2.22 2.22 0 0 0-.107.853 7.9 7.9 0 0 0 .08.959 13.475 13.475 0 0 0-4.151-.12c-.698.025-1.394.096-2.082.213a5.058 5.058 0 0 0-.681.2v-.12c0-.373.08-1.013.067-1.546 0-.289-.059-.574-.174-.839a1.033 1.033 0 0 0-.294-.32c-.267-.147-.681-.36-.761-.36a4.647 4.647 0 0 1-.614-.533 3.985 3.985 0 0 1-.494-.64 7.53 7.53 0 0 1-1.054-2.825 7.096 7.096 0 0 1 .133-2.944 8.08 8.08 0 0 1 2.109-3.584 7.763 7.763 0 0 1 3.551-2.078 7.487 7.487 0 0 1 5.152.613 6.537 6.537 0 0 1 3.458 3.771 7.423 7.423 0 0 1 .133 3.557z" style="fill:var(--color1, #343434)"/><path fill="#343434" d="M19.663 13.212a4.385 4.385 0 0 0-.747-1.146 3.548 3.548 0 0 0-.801-.586 2.481 2.481 0 0 0-.988-.333 2.157 2.157 0 0 0-.801 0c-.32.147-.467.346-.347.626s.641.173.921.293c.19.08.359.203.494.36.149.161.283.335.4.52.213.321.388.665.521 1.026.165.369.294.753.387 1.146a3.37 3.37 0 0 1 0 1.585.465.465 0 0 0 .267.6.479.479 0 0 0 .601-.267c.39-.83.521-1.759.374-2.665a4.532 4.532 0 0 0-.28-1.159z" style="fill:var(--color1, #343434)"/></symbol><symbol id="icon-minus" viewBox="0 0 32 32"><path d="M25.333 14.667H6.666a1.334 1.334 0 0 0 0 2.668h18.667a1.334 1.334 0 0 0 0-2.668z"/></symbol><symbol id="icon-plus" viewBox="0 0 32 32"><path d="M25.333 14.667h-8v-8a1.334 1.334 0 0 0-2.668 0v8h-8a1.334 1.334 0 0 0 0 2.668h8v8a1.334 1.334 0 0 0 2.668 0v-8h8a1.334 1.334 0 0 0 0-2.668z"/></symbol><symbol id="icon-rating-star" viewBox="0 0 32 32"><path d="M15.196 1.933c.297-.715 1.311-.715 1.608 0l3.608 8.676a.87.87 0 0 0 .734.534l9.366.751c.772.062 1.085 1.025.497 1.529l-7.136 6.113a.87.87 0 0 0-.28.863l2.18 9.14c.18.753-.64 1.349-1.301.945l-8.019-4.898a.872.872 0 0 0-.908 0l-8.019 4.898c-.661.404-1.481-.192-1.301-.945l2.18-9.14a.87.87 0 0 0-.281-.863L.988 13.423c-.588-.504-.275-1.467.497-1.529l9.366-.751a.87.87 0 0 0 .734-.534l3.608-8.676z"/></symbol><symbol id="icon-rocket" viewBox="0 0 33 32"><path fill="#343434" d="M23.58 12.671c.096-.332.165-.67.207-1.012a7.12 7.12 0 0 0 0-.745c.091-.639-.062-1.288-.43-1.827s-.926-.93-1.571-1.101a8.966 8.966 0 0 0-4.829.838 9.085 9.085 0 0 0-3.173 2.343 33.268 33.268 0 0 0-2.842 3.713.41.41 0 0 0-.248.067 9.784 9.784 0 0 1-2.138 1.025 7.342 7.342 0 0 1-2.263.399c-.54-.07-1.074-.172-1.6-.306a2.423 2.423 0 0 0-1.09.08 2.84 2.84 0 0 0-1.062.732c-.335.39-.64.804-.911 1.238a6.715 6.715 0 0 0-1.38 2.662c-.003.392.102.778.303 1.12s.492.625.842.824l1.462.905a.459.459 0 0 0 .493.02.434.434 0 0 0 .127-.114.43.43 0 0 0-.11-.599l-1.38-.972c-.483-.413-.648-.759-.607-1.091.068-.261.19-.505.359-.719.193-.266.428-.532.662-.825.295.356.613.694.952 1.012.159.159.335.302.524.426.182.135.376.255.579.359.455.253.924.466 1.38.692l-2.759 3.886a.376.376 0 0 0 .097.532.38.38 0 0 0 .456 0c-.015.079-.002.161.038.231s.105.125.182.155c.434.468.894.912 1.38 1.331.235.168.479.323.731.466.251.145.514.27.786.373.637.248 1.298.435 1.973.559.113.038.238.032.347-.018s.192-.139.233-.248c.035-.108.023-.224-.031-.324s-.147-.175-.259-.208c-.593-.293-1.104-.652-1.656-.985s-.731-.453-1.104-.652c-.662-.333-1.38-.586-2.028-.918a.356.356 0 0 0-.344 0l2.414-3.114a.344.344 0 0 0 .097.133c.538.466.993.998 1.518 1.464.36.319.742.612 1.145.878a11.18 11.18 0 0 0 2.249 1.091c.107.04.225.04.331 0l-.235.293c-.648.918-1.421 1.77-2.028 2.542a.416.416 0 0 0 0 .598.467.467 0 0 0 .634 0c.373-.386.759-.839 1.173-1.331-.042.028-.077.064-.105.105s-.046.087-.055.136a.354.354 0 0 0 .063.278 4.71 4.71 0 0 0 1.38 1.757c.357.266.752.482 1.173.639.612.233 1.245.411 1.89.532.317.106 2.497-2.396 2.539-2.449a4.01 4.01 0 0 0 .8-1.677 2.119 2.119 0 0 0-.11-.998c-.166-.506-.524-1.025-.621-1.451a8.525 8.525 0 0 1-.345-2.462 7.521 7.521 0 0 1 .372-2.489.27.27 0 0 0 0-.106 47.9 47.9 0 0 0 3.284-3.567 10.919 10.919 0 0 0 2.139-4.126zm-6.098-2.502a7.379 7.379 0 0 1 3.891-.759c.579.146.938.612.966 1.544.027.226.027.453 0 .679a6.753 6.753 0 0 1-.138.719 8.502 8.502 0 0 1-1.076 2.542 6.495 6.495 0 0 0 0-1.025 3.73 3.73 0 0 0-.29-1.331c-.196-.42-.494-.788-.868-1.073s-.815-.479-1.284-.564a5.432 5.432 0 0 0-3.077.453 6.582 6.582 0 0 1 1.876-1.185zM5.369 20.045a5.503 5.503 0 0 0-.524-.426 4.961 4.961 0 0 0-.566-.359 13.95 13.95 0 0 0-1.283-.626c.19-.285.402-.557.635-.812.14-.15.309-.272.497-.359a.93.93 0 0 1 .386 0 10.58 10.58 0 0 0 1.863.186 8.527 8.527 0 0 0 2.594-.745c.29-.133.566-.293.842-.453L6.46 21.109c-.373-.359-.704-.719-1.09-1.065zm6.36 5.643a16.748 16.748 0 0 1-1.6-1.331c-.359-.293-.717-.599-1.118-.865a14.567 14.567 0 0 0-2.18-1.131h-.124l4.787-6.149a48.215 48.215 0 0 1 3.394-4.126v-.04c.02.046.048.087.085.122s.08.062.127.081.098.028.15.027a.401.401 0 0 0 .149-.031 5.514 5.514 0 0 1 2.483-.133c.352.051.689.168.993.346.29.143.529.366.69.639.215.351.356.74.414 1.145.06.441.087.886.083 1.331a.415.415 0 0 0 .221.425c-1.269 1.677-2.87 3.194-4.139 4.765s-2.759 3.434-4.208 5.324c.015-.079.003-.161-.035-.233s-.098-.13-.172-.166zm4.015 5.044a.473.473 0 0 0-.083.266c-.593-.319-1.2-.719-1.835-1.118a7.804 7.804 0 0 0-.662-.373c-.221-.133-.455-.226-.676-.359a4.017 4.017 0 0 1-.759-.572c-.029-.04-.066-.075-.109-.101a.41.41 0 0 0-.291-.05.393.393 0 0 0-.138.058l.938-1.145.759-.892a.327.327 0 0 0 .124.253c.304.399.552.825.883 1.211.137.168.289.324.455.466.166.139.341.268.524.386.436.291.898.544 1.38.759a.47.47 0 0 0 .317.067c-.235.413-.552.799-.828 1.145zm1.379-1.863-.138.2a.516.516 0 0 0-.166-.253c-.372-.346-.662-.732-1.007-1.091a6.914 6.914 0 0 0-.731-.679 12.49 12.49 0 0 0-1.504-.905.446.446 0 0 0-.345-.08c1.283-1.531 2.566-3.101 3.642-4.326a7.441 7.441 0 0 0-.235 1.091 8.625 8.625 0 0 0 .097 2.862c.124.466.483 1.038.69 1.571a.864.864 0 0 1 .11.386 2.592 2.592 0 0 1-.414 1.224z" style="fill:var(--color1, #343434)"/><path fill="#343434" d="M26.133 17.835c.773-1.091 1.545-2.169 2.194-3.314.446-.787.828-1.606 1.145-2.449.471-1.555.584-3.19.331-4.792A50.447 50.447 0 0 0 28.092.625c-.023-.087-.077-.163-.153-.214s-.169-.075-.261-.065c-.014-.089-.059-.171-.126-.234s-.154-.102-.247-.113c-1.627.047-3.25.198-4.856.453a16.725 16.725 0 0 0-3.27.878 12.73 12.73 0 0 0-2.911 1.664 35.06 35.06 0 0 0-3.615 3.381c-.704.745-1.449 1.477-2.139 2.236-.49.512-.951 1.05-1.38 1.611a.39.39 0 0 0 .165.636.408.408 0 0 0 .497-.21c.431-.504.892-.984 1.38-1.437.759-.692 1.573-1.331 2.332-2.023a44.81 44.81 0 0 1 3.601-3.075 12.742 12.742 0 0 1 2.621-1.557c.93-.417 1.9-.742 2.897-.972 1.541-.34 3.103-.58 4.677-.719a56.175 56.175 0 0 1 1.145 6.562 9.675 9.675 0 0 1-.442 4.193 16.818 16.818 0 0 1-1.021 2.263c-.593 1.131-1.256 2.223-1.945 3.314a24.404 24.404 0 0 1-1.545 2.249 25.102 25.102 0 0 1-1.711 2.076.43.43 0 0 0 0 .612.45.45 0 0 0 .62 0 28.233 28.233 0 0 0 1.973-2.063 32.654 32.654 0 0 0 1.752-2.236z" style="fill:var(--color1, #343434)"/><path fill="#036" d="M32.024 14.641c-.235-.865-.579-1.717-.828-2.462-.029-.096-.096-.178-.186-.227s-.197-.064-.297-.039c-.099.025-.183.087-.235.171s-.067.186-.041.281c.166.759.428 1.624.566 2.476a4.795 4.795 0 0 1 0 1.531 3.77 3.77 0 0 1-.359 1.091c-.276.586-.621 1.131-.938 1.69a22.801 22.801 0 0 1-2.014 3.194c-1.131 1.584-2.345 3.114-3.491 4.698a.427.427 0 0 0 .097.599.462.462 0 0 0 .328.085.453.453 0 0 0 .294-.164c1.476-1.744 3.132-3.381 4.511-5.204a19.129 19.129 0 0 0 1.614-2.555c.29-.612.635-1.211.869-1.85.186-.469.298-.963.331-1.464a5.789 5.789 0 0 0-.221-1.85zM2.554 11.207l3.035-3.713c.538-.745 1.062-1.61 1.683-2.369a5.47 5.47 0 0 1 .717-.812c.233-.191.499-.34.786-.439.524-.2 1.09-.306 1.656-.466.924-.28 1.78-.612 2.677-.839a8.63 8.63 0 0 1 1.78-.28c.104 0 .204-.039.278-.108s.118-.164.122-.264c-.003-.101-.047-.198-.121-.269s-.174-.113-.279-.117c-.66-.021-1.321.019-1.973.12-.938.133-1.835.359-2.759.532a18.7 18.7 0 0 0-1.835.359 3.976 3.976 0 0 0-1.283.679 7.31 7.31 0 0 0-1.256 1.398c-.497.705-.883 1.491-1.38 2.183s-.552 1.051-.924 1.571a67.971 67.971 0 0 1-1.628 2.276.404.404 0 0 0-.088.316.427.427 0 0 0 .171.283.465.465 0 0 0 .621-.04z" style="fill:var(--color2, #036)"/></symbol><symbol id="icon-star" viewBox="0 0 32 32"><path d="m17.657 2.643-.917.543c-1.007.596-1.511.895-2.066.964s-1.098-.098-2.184-.432l-.989-.304C7.679 2.238 5.767 1.65 4.619 2.701s-.774 3.046-.026 7.036l.194 1.032c.213 1.134.319 1.7.193 2.254s-.471 1.032-1.16 1.988l-.627.87C.768 19.245-.444 20.927.148 22.321s2.595 1.578 6.602 1.944l1.037.095c1.139.104 1.708.156 2.185.429s.807.735 1.467 1.66l.601.842c2.324 3.255 3.486 4.883 5 4.693s2.378-2.071 4.106-5.834l.447-.974c.251-.547.438-.953.617-1.272l7.342 7.343a1.2 1.2 0 1 0 1.697-1.697l-7.091-7.091c.195-.071.413-.147.659-.233l.999-.35c3.861-1.352 5.791-2.028 6.136-3.54s-1.125-2.858-4.064-5.55l-.76-.697c-.835-.765-1.253-1.148-1.47-1.658s-.208-1.092-.19-2.255l.016-1.058c.062-4.091.093-6.136-1.208-6.881s-3.073.305-6.618 2.404z"/></symbol><symbol id="icon-clock" viewBox="0 0 31 32"><path fill="#036" d="M24.102 9.92a11.38 11.38 0 0 0-1.165-.909l.102-.09c.077-.09.23-.166.346-.282.141-.159.261-.336.358-.525.064-.128.115-.256.166-.371l.717.384c.148.105.307.195.474.269.256.077.422 0 .499 0s.192-.179.166-.358a.448.448 0 0 0-.256-.397c0-.077-.179-.23-.205-.269l-.653-.742a7.443 7.443 0 0 0-.781-.602c-.218-.128-.448-.192-.666-.294-.73-.294-.896-.435-1.152-.333s-.384.333 0 .73c.196.222.405.431.627.627.154.128.282.282.422.422l-.141.077c-.166.154-.397.243-.563.41A2.073 2.073 0 0 0 22 8.23v.205a14.928 14.928 0 0 0-5.619-1.702v-.205a2.885 2.885 0 0 0 0-.474 1.975 1.975 0 0 0 0-.461c0-.294-.141-.614-.243-1.024.73 0 1.459-.128 2.202-.243a.388.388 0 0 0 .346-.41.378.378 0 0 0-.14-.261.38.38 0 0 0-.283-.085 24.49 24.49 0 0 1-2.918 0 11.462 11.462 0 0 1-1.843-.371 1.548 1.548 0 0 1-.55-.294c-.128-.09-.307-.154-.256-.294a.907.907 0 0 1 .397-.346.843.843 0 0 1 .358-.115c.832-.064 1.779-.192 2.688-.243a10.64 10.64 0 0 1 1.101 0c.35-.02.7-.02 1.05 0 .173.019.339.075.486.166a.527.527 0 0 1 .218.333c.045.181.045.37 0 .55a.446.446 0 0 0 .041.333.448.448 0 0 0 .265.205.438.438 0 0 0 .537-.295 2.163 2.163 0 0 0 0-1.178 1.46 1.46 0 0 0-.486-.755c-.256-.2-.553-.34-.87-.41a8.6 8.6 0 0 0-1.165-.154 11.429 11.429 0 0 0-1.613-.064c-.794 0-1.6.064-2.33.077a2.267 2.267 0 0 0-1.203.422c-.38.25-.678.606-.858 1.024a1.477 1.477 0 0 0 .358 1.536c.437.409.985.68 1.574.781.658.085 1.321.119 1.984.102-.09.384-.166.691-.218.973a3.408 3.408 0 0 0 0 .474v.474a.339.339 0 0 0 0 .09 17.287 17.287 0 0 0-3.302.179 10.417 10.417 0 0 0-8.179 7.526 14.762 14.762 0 0 0 .96 11.187c2.202 4.122 7.821 6.285 13.005 5.734 12.736-1.293 12.083-16.358 6.605-21.299zm-.473 17.805c-1.28 1.549-4.442 2.227-8.269 2.432s-6.093-1.792-8.666-3.84a6.397 6.397 0 0 1-.909-1.37 13.5 13.5 0 0 1-.806-10.086 10.558 10.558 0 0 1 2.56-4.352 9.552 9.552 0 0 1 4.442-2.33c2.084-.368 4.22-.32 6.285.141a15.578 15.578 0 0 1 5.12 2.445 14.077 14.077 0 0 1 3.264 8.589c.077 3.366-1.05 6.733-3.021 8.371z" style="fill:var(--color1, #036)"/><path fill="#343434" d="M15.616 28.48s-.077-1.869-.525-1.869c-.141 0-.243.077-.371.23a2.896 2.896 0 0 0-.192.742 2.193 2.193 0 0 0-.077.64c.006.207.031.413.077.614a.792.792 0 0 0 .474.243c.614 0 .602-.41.614-.602zM15.616 9.6s-.077 1.869-.525 1.869c-.141 0-.243 0-.371-.23a2.76 2.76 0 0 1-.192-.742c-.057-.204-.083-.415-.077-.627s.032-.421.077-.627A.792.792 0 0 1 15.002 9c.614-.013.602.41.614.602zM23.744 17.945c-.435.09-.819.282-1.28.358-.092 0-.18.036-.244.101s-.101.153-.101.244a.343.343 0 0 0 .345.345c.465.077.937.103 1.408.077.256 0 .525-.077.806-.09l.384-.077a.55.55 0 0 0 .076-.666.668.668 0 0 0-.461-.345 3.95 3.95 0 0 0-.934.051zM22.592 25.331a6.404 6.404 0 0 0-.435-.55 4.452 4.452 0 0 0-.614-.55 5.919 5.919 0 0 0-.64-.448.62.62 0 0 0-.282-.102c-.092 0-.18.036-.244.101s-.101.153-.101.244c0 .166-.077 0 .589.883.102.141.192.333.333.525a4 4 0 0 0 .448.499.59.59 0 0 0 .435.179c.384-.09.717-.499.512-.781zM20.582 11.84c-.102.192-.179.384-.256.538s-.32.474-.384.653a.65.65 0 0 0-.064.256c0 .092.036.18.101.244s.153.101.244.101c0 0 .077.115.896-.678l.358-.384c.102-.131.196-.268.282-.41.077-.128.141-.256.205-.384a.312.312 0 0 0 0-.268c-.077-.41-.32-.55-.819-.371-.102.09-.128 0-.218.166a3.521 3.521 0 0 0-.346.538zM7.283 17.728c.422.09.806.282 1.28.358.092 0 .18.036.244.101s.101.153.101.244a.345.345 0 0 1-.345.345 5.876 5.876 0 0 1-1.408.077c-.269 0-.538-.077-.819-.09l-.384-.077a.55.55 0 0 1-.076-.666c.23-.333.461-.346.461-.346.317-.02.635-.002.947.051zM8.064 24.755a3.89 3.89 0 0 1 1.049-1.075c.203-.163.417-.313.64-.448a.62.62 0 0 1 .282-.102c.092 0 .18.036.244.101s.101.153.101.244c0 .166.077 0-.589.883-.102.141-.192.333-.333.525a4.073 4.073 0 0 1-.448.499.59.59 0 0 1-.435.179c-.384-.115-.717-.525-.512-.806zM10.432 11.84c.102.192.179.384.256.538s.32.474.384.653a.484.484 0 0 1 0 .256.348.348 0 0 1-.333.346s-.09.115-.909-.678l-.346-.384a4.463 4.463 0 0 1-.218-.41c-.077-.128-.141-.256-.205-.384a.389.389 0 0 1 0-.269c.077-.41.333-.55.819-.371.102.09.128 0 .23.166.123.169.23.349.32.538z" style="fill:var(--color2, #343434)"/></symbol><symbol id="icon-english" viewBox="0 0 31 32"><path fill="#036" d="M30.451 7.283a8.074 8.074 0 0 0-5.798-6.22 8.968 8.968 0 0 0-4.698.23 8.346 8.346 0 0 0-3.84 2.56 10.034 10.034 0 0 0-2.176 6.131 6.3 6.3 0 0 0 2.855 5.658c.563.371.358-.179-.358 2.816-.563 1.907-.474 1.459-.448 1.651.005.14.055.274.141.384.09.128.221.223.371.269.39.107.805.08 1.178-.077a7.503 7.503 0 0 0 1.6-1.05l1.83-1.498a.406.406 0 0 0 .179-.257.392.392 0 0 0-.063-.307c-.06-.089-.153-.151-.258-.173s-.215-.001-.305.058l-2.022 1.203c-.351.221-.714.422-1.088.602l.102-.499c.051-.307.09-.614.115-.922 0-.691 0-1.37.115-2.048 0-.192-.154-.269-.282-.422a1.201 1.201 0 0 0-.422-.333 5.482 5.482 0 0 1-2.291-5.043 8.872 8.872 0 0 1 2.086-5.35 7.223 7.223 0 0 1 3.392-2.074 7.671 7.671 0 0 1 3.955-.166 6.81 6.81 0 0 1 4.877 5.184 8.135 8.135 0 0 1-1.383 7.258 5.78 5.78 0 0 1-2.483 1.741 9.089 9.089 0 0 1-3.123.435.438.438 0 0 0-.423.397.397.397 0 0 0 .25.39.42.42 0 0 0 .16.032 9.94 9.94 0 0 0 3.43-.384 6.598 6.598 0 0 0 2.957-1.946 9.239 9.239 0 0 0 1.869-8.23z" style="fill:var(--color1, #036)"/><path fill="#036" d="M3.047 16.179a7 7 0 0 0 2.074 1.101c1.997.704 1.805.192 2.304.794l1.421 1.869L9.972 21.3c.128.164.27.319.422.461a.779.779 0 0 0 .486.192.834.834 0 0 0 .64-.269c.165-.255.287-.536.358-.832l.077-.627-.09-1.28-.051-1.792a3.51 3.51 0 0 0 1.101-.154c.145-.055.283-.128.41-.218a1.91 1.91 0 0 0 .346-.294c.233-.267.443-.554.627-.858a.42.42 0 0 0 0-.576.409.409 0 0 0-.576 0c-.384.256-.794.384-1.165.589a2.358 2.358 0 0 0-.282.218c-.256.205-.422.435-.678.614s0 0-.192 0a.406.406 0 0 0-.395.229.397.397 0 0 0-.041.155l-.179 2.035-.115 1.19-.998-.934-1.69-1.536c-.243-.282-.102-.538-.474-.602a9.393 9.393 0 0 1-2.061-.576 5.547 5.547 0 0 1-1.754-1.062 4.432 4.432 0 0 1-.755-.922 9.174 9.174 0 0 1-.576-1.011 10.093 10.093 0 0 1-.794-2.176 7.172 7.172 0 0 1-.218-2.227 7.5 7.5 0 0 1 1.536-4.173 7.985 7.985 0 0 1 3.507-2.701 6.69 6.69 0 0 1 1.613-.397 8.103 8.103 0 0 1 1.677 0 8.585 8.585 0 0 1 1.83.282c.58.175 1.142.407 1.677.691a.37.37 0 0 0 .533-.277.363.363 0 0 0-.188-.364 10.586 10.586 0 0 0-1.83-.832A9.82 9.82 0 0 0 9.79.805 9.2 9.2 0 0 0 7.921.728c-.639.04-1.27.156-1.882.346A8.663 8.663 0 0 0-.003 8.92a8.497 8.497 0 0 0 .346 2.56c.25.822.584 1.615.998 2.368.254.5.554.976.896 1.421.236.331.506.635.806.909zM19.2 13.107a.41.41 0 0 0 .46.358 5.12 5.12 0 0 0 2.65-.806c.296.162.61.291.934.384.54.159 1.092.275 1.651.346a.412.412 0 0 0 .536-.297.415.415 0 0 0-.066-.329.41.41 0 0 0-.29-.168 11.576 11.576 0 0 1-1.203-.435 5.422 5.422 0 0 1-.576-.358c.168-.186.317-.388.448-.602.2-.355.355-.733.461-1.126l.243-1.971c.448 0 .909-.077 1.357-.141.287-.04.569-.104.845-.192a.408.408 0 0 0 .295-.499.42.42 0 0 0-.499-.294c-.234.019-.47.019-.704 0-.614 0-1.28-.128-1.856-.128h-1.178c-.102-.205-.154-.397-.269-.589a1.704 1.704 0 0 0-.282-.397 3.89 3.89 0 0 0-.768-.486.364.364 0 1 0-.564.46c.055.255.123.507.205.755.049.1.109.195.179.282a.257.257 0 0 0 .09.077l-.64.09-1.178.218a7.063 7.063 0 0 1-.742 0 .363.363 0 0 0-.269.081.352.352 0 0 0-.127.252.337.337 0 0 0 .078.26c.03.036.067.065.108.087s.087.034.134.037l1.28.115a3.082 3.082 0 0 0 0 .333c.022.363.078.723.166 1.075a6.39 6.39 0 0 0 .653 1.664c.141.213.304.41.486.589a4.767 4.767 0 0 1-1.728.806.408.408 0 0 0-.32.549zm1.626-4.723v-.141h1.549c.512 0 .858 0 1.28-.115L23.041 9.6c-.21.431-.472.835-.781 1.203h-.064a2.037 2.037 0 0 1-.128-.166 6.516 6.516 0 0 1-.934-1.485 4.507 4.507 0 0 1-.307-.768z" style="fill:var(--color1, #036)"/><path fill="#036" d="M7.347 6.759c.209.019.419.019.627 0 .205 0 .397-.077.602-.115l.755-.179a.41.41 0 0 0 .499-.295c.015-.051.02-.105.015-.158s-.022-.105-.049-.151a.4.4 0 0 0-.247-.189l-.986-.205-.512-.077h-.806c-.41.09-.768.243-1.165.333a.552.552 0 0 0-.563.601l-.115 3.098v2.406c.021.285.129.557.307.781a1.372 1.372 0 0 0 1.101.461l.922-.128.794-.141 1.498-.192a.412.412 0 0 0 .102-.719.404.404 0 0 0-.281-.074H8.463l-.781.013h-.909a.765.765 0 0 1 0-.179v-.934l-.154-1.28v-.179c.2.095.411.168.627.218.141.055.287.098.435.128.153.013.307.013.461 0a4.838 4.838 0 0 0 1.062-.307.407.407 0 1 0-.128-.806c-.32 0-.614-.141-.96-.179a2.852 2.852 0 0 0-.653 0 4.11 4.11 0 0 0-.947.013L6.26 6.532c.356.107.72.184 1.088.23zM25.434 24.96c-1.28.397-2.778.691-4.173 1.152-.95.291-1.867.677-2.739 1.152-3.84 2.099-3.226 3.904-3.277 2.714l-.064-2.406v-1.574c0-.525 0-1.062-.077-1.587-.09-1.062-.269-2.099-.461-3.162a.358.358 0 0 0-.716 0c0 1.28-.154 2.56-.141 3.84 0 .845.102 1.69.179 2.56l.474 2.432v.064l-.896-.614a6.097 6.097 0 0 0-1.075-.474c-.525-.179-1.062-.307-1.587-.474a13.008 13.008 0 0 0-1.613-.422 13.307 13.307 0 0 0-1.587-.243l-2.061-.243-1.075-.243c-.371-.09-.563-.166-.653-.358a7.918 7.918 0 0 1-.141-1.894l-.41-2.778c-.09-.87-.154-1.728-.269-2.56a16.318 16.318 0 0 0-.307-1.728.384.384 0 0 0-.435-.281.36.36 0 0 0-.231.158.342.342 0 0 0-.038.278c.084.521.14 1.047.166 1.574 0 .845 0 1.69.064 2.56l.141 2.88A9.321 9.321 0 0 0 2.56 27.6a2.015 2.015 0 0 0 1.613 1.203l1.165.256c.371.064.742.102 1.126.141H7.59c.505.001 1.01.035 1.51.102.508.071 1.013.169 1.51.294.525.128 1.062.218 1.587.358.323.088.64.199.947.333l1.485.909s.678.179.845-.064a8.818 8.818 0 0 1 2.65-2.125c.371-.205.755-.397 1.139-.576a44.188 44.188 0 0 1 1.779-.794c1.574-.653 3.174-1.28 4.659-1.882a.396.396 0 0 0 .235-.203.387.387 0 0 0 .009-.31.393.393 0 0 0-.351-.3.422.422 0 0 0-.162.019zM26.88 18.688a.352.352 0 0 0-.207-.343.345.345 0 0 0-.138-.029.367.367 0 0 0-.343.219.34.34 0 0 0-.028.14c-.146.782-.24 1.573-.282 2.368-.026.46-.026.922 0 1.382 0 .704.128 1.37.115 2.061a.424.424 0 0 0 .083.305.412.412 0 0 0 .571.076.389.389 0 0 0 .152-.267 13.47 13.47 0 0 0 .371-2.099 5.518 5.518 0 0 0 0-.909 6.847 6.847 0 0 0 0-.883c-.102-.691-.294-1.344-.294-2.022z" style="fill:var(--color1, #036)"/><path fill="#343434" d="M20.723 22.989c-.461.179-.922.32-1.37.538-.668.364-1.298.792-1.882 1.28a.358.358 0 0 0 .223.679.355.355 0 0 0 .136-.064c.768-.32 1.574-.486 2.368-.755.346-.115.666-.269.998-.397s.794-.461 1.28-.64c.243-.114.502-.187.768-.218a.41.41 0 0 0 .435-.371.408.408 0 0 0-.384-.436 2.75 2.75 0 0 0-1.114 0c-.493.101-.98.229-1.459.384zM6.272 25.549c.602.179 1.28.397 1.946.538.371.064.755.102 1.114.154a5.637 5.637 0 0 1 1.587.333.414.414 0 1 0 .436-.704 5.12 5.12 0 0 0-1.946-.909 4.941 4.941 0 0 0-1.28-.166c-.64 0-1.28.09-1.805.102a.343.343 0 0 0-.355.174.345.345 0 0 0-.042.133.358.358 0 0 0 .346.346zM7.68 23.271c.192.065.389.116.589.153.192 0 .397.077.589.115.486.077.96.115 1.421.205a.406.406 0 0 0 .518-.237.406.406 0 0 0-.237-.518 8.972 8.972 0 0 0-1.357-.691 5.897 5.897 0 0 0-.614-.218 3.792 3.792 0 0 0-.653-.102 7.818 7.818 0 0 0-1.536.089.337.337 0 0 0-.26.078.348.348 0 0 0-.124.242.372.372 0 0 0 .384.396c.41.128.819.333 1.28.487zM21.914 20.339a5.459 5.459 0 0 0-1.894.102c-.269.063-.53.153-.781.269a4.203 4.203 0 0 0-.691.435 7.592 7.592 0 0 0-1.28 1.37.362.362 0 0 0 .5.524 13.594 13.594 0 0 1 1.741-.922c.371-.192.717-.397 1.101-.55a5.807 5.807 0 0 1 1.28-.41.416.416 0 0 0 .291-.133.409.409 0 0 0-.008-.563.406.406 0 0 0-.257-.123z" style="fill:var(--color2, #343434)"/></symbol><symbol id="icon-modules" viewBox="0 0 31 32"><path fill="#036" d="M14.448 3.465c-.154-.41-.256-.346-2.714-2.381a.447.447 0 0 0-.695.41c.01.113.062.218.145.294 3.11 2.701 2.33 1.638 2.278 3.494a34.5 34.5 0 0 1-.32 5.248 13.897 13.897 0 0 1-.397 1.754 1.59 1.59 0 0 1-.256.269h-.205a36.158 36.158 0 0 1-3.725 0 46.096 46.096 0 0 1-4.954-.333c.717-2.355.678-5.44.909-10.099 1.574-.294 4.224-.614 4.826-.678A.406.406 0 0 0 9.173.65c-2.202.179-1.28.09-4.275.41-1.728.269-1.357-.23-2.035 7.424a14.265 14.265 0 0 1-.96 4.045.756.756 0 0 0 .59 1.114 52.85 52.85 0 0 0 6.08.435c4.634-.077 5.658.781 5.965-4.762 0-5.158.166-5.35-.09-5.85zM29.872 4.156c0-1.075-.499-1.101-2.918-3.072a.446.446 0 0 0-.486 0c-6.746-.205-7.398-.077-7.68.653s-.499 6.477-1.024 8.96c-.448 2.112-.896 2.048-.602 2.624a.71.71 0 0 0 .601.397c1.28.128 2.445.269 3.61.346s5.12.141 6.029 0c1.869-.205 2.022-1.382 2.266-3.302.194-1.802.242-3.617.141-5.427 0-.307.077-.781.064-1.178zm-1.037.153c0 .358-.09.742-.102.973a27.792 27.792 0 0 1-.576 6.541 1.007 1.007 0 0 1-.423.768c-.243.179-5.939-.077-6.246-.102-.858-.064-1.702-.154-2.56-.243.742-2.406.704-5.53.934-10.061a45.966 45.966 0 0 1 6.592-.358l1.536 1.28c.781.755.883.589.845 1.203zM12.822 19.733c-1.728-1.408-1.805-1.587-2.15-1.395-2.406-.077-6.682-.294-7.437.294s-.563 8.896-1.856 11.187a.749.749 0 0 0-.013.724.751.751 0 0 0 .602.402 52.61 52.61 0 0 0 6.08.422c4.646-.09 5.632.781 5.965-4.749 0-6.694.435-5.491-1.19-6.886zm.192 1.869c0 .358-.09.742-.102.973a27.792 27.792 0 0 1-.576 6.541c-.09.371 0 .461-.422.768s-5.952-.077-6.246-.102c-.858-.064-1.702-.154-2.56-.243.717-2.33.678-5.03.934-10.061a44.391 44.391 0 0 1 6.63-.346l1.536 1.28c.806.717.87.576.806 1.19zM28.08 19.733c-1.728-1.408-1.792-1.587-2.138-1.395-2.394-.077-6.694-.294-7.437.294s-.525 8.742-1.856 11.187a.761.761 0 0 0-.017.719.749.749 0 0 0 .593.407c2.021.254 4.056.39 6.093.41 4.646-.09 5.632.781 5.952-4.749 0-6.682.448-5.478-1.19-6.874zm.294 1.869c0 .358-.102.742-.102.973a27.222 27.222 0 0 1-.589 6.541.98.98 0 0 1-.423.768c-.23.179-5.939-.077-6.246-.102-.845-.064-1.69-.154-2.56-.243.73-2.33.691-5.12.947-10.061a44.092 44.092 0 0 1 6.618-.346l1.536 1.28c.678.717.819.576.819 1.19z" style="fill:var(--color1, #036)"/><path fill="#343434" d="M8.406 5.769h1.203c1.907-.23 2.125-.154 2.125-.435s-1.754-.499-2.445-.499h-1.28c-2.138.205-2.112.269-2.125.435.09.41 2.099.499 2.522.499zM8.189 9.199h1.203c1.92-.128 2.112 0 2.176-.333s-1.741-.538-2.394-.538a9.763 9.763 0 0 0-1.28 0c-2.138.192-2.099.269-2.112.422-.026.384 1.997.448 2.406.448zM7.818 23.522h1.203c1.92-.141 2.112 0 2.176-.346s-1.754-.499-2.432-.512c-.41 0-.819 0-1.28.064-2.138.192-2.099.269-2.125.422-.026.307 2.048.371 2.458.371zM7.613 26.991h1.19c1.92-.141 2.125-.064 2.176-.346s-1.741-.499-2.432-.512c-.41 0-.819 0-1.28.064-2.138.205-2.112.269-2.125.435.026.294 2.048.358 2.47.358zM22.947 23.983c.41 0 .806 0 1.203-.064 1.92-.128 2.125-.064 2.176-.333s-1.741-.512-2.432-.512a9.684 9.684 0 0 0-1.216.064c-2.15.192-2.112.269-2.125.422-.038.358 1.984.422 2.394.422zM22.743 27.439c.397 0 .794 0 1.19-.064 1.92-.128 2.125-.064 2.176-.333s-1.741-.512-2.432-.512c-.41 0-.819 0-1.216.064-2.138.192-2.112.269-2.125.422-.038.358 1.984.422 2.406.422zM23.485 5.974h1.203c1.907-.141 2.112-.064 2.176-.346s-1.754-.499-2.445-.512c-.397 0-.806 0-1.216.064-2.138.205-2.112.269-2.125.435-.038.294 1.984.358 2.406.358zM23.255 9.429c.41 0 .806 0 1.203-.064 1.92-.141 2.112 0 2.176-.333s-1.754-.512-2.432-.512h-1.28c-2.138.205-2.099.269-2.112.435s2.048.474 2.445.474z" style="fill:var(--color2, #343434)"/></symbol><symbol id="icon-online" viewBox="0 0 31 32"><path fill="#343434" d="M12.621 19.507c1.059.35 2.18.472 3.29.358a7.007 7.007 0 0 0 6.173-4.154 6.998 6.998 0 0 0-1.053-7.365 7.316 7.316 0 0 0-6.04-2.581 7.307 7.307 0 0 0-5.673 3.31c-2.061 3.059-.986 7.539 1.062 8.858a.4.4 0 0 0 .461-.653c-1.638-1.152-2.381-5.12-.525-7.539a6.148 6.148 0 0 1 4.687-2.564 6.162 6.162 0 0 1 4.927 2.064c3.034 3.597 1.28 9.062-4.109 9.69a7.061 7.061 0 0 1-2.931-.205.427.427 0 0 0-.391-.071.436.436 0 0 0 .121.852z" style="fill:var(--color2, #343434)"/><path fill="#036" d="M30.259 8.064c-.154-1.395-.09-4.186-1.178-4.954-2.445-1.741-7.68-1.28-11.277-1.395-4.454-.154-9.229.205-13.594.32a.446.446 0 0 0-.355.096.445.445 0 0 0-.114.517.44.44 0 0 0 .281.236.459.459 0 0 0 .188.009c4.429 0 9.05-.333 13.542-.102 3.11.166 8.538-.166 10.573 1.28.486.358.499 3.149.602 4.096a44.61 44.61 0 0 1 .09 10.368 15.477 15.477 0 0 1-.563 3.379c-3.072 1.562-25.229 2.867-26.56.717a22.116 22.116 0 0 1-.819-5.312 73.613 73.613 0 0 1 .768-13.875c.371-.346-.154-.909-.512-.563-.55.499-.448 2.086-.538 2.65a56.52 56.52 0 0 0-.666 13.03c.061 1.597.323 3.179.781 4.71 1.075 1.805 8.128 1.869 10.24 1.882a5.53 5.53 0 0 0-1.139 3.84l-2.765.192a.384.384 0 1 0 0 .768c2.56.09 4.506.346 7.68.32s5.197-.294 7.77-.486a.446.446 0 0 0 .355-.096.445.445 0 0 0 .114-.517.43.43 0 0 0-.281-.236.459.459 0 0 0-.188-.009h-2.355a10.81 10.81 0 0 0-1.28-4.032 57.934 57.934 0 0 0 8.653-1.126c1.856-.474 2.189-.947 2.432-2.317.74-4.429.779-8.947.115-13.389zM19.353 28.928c-3.648-.09-5.44-.115-8.384 0 .205-.499.512-1.165.653-1.651a13.76 13.76 0 0 0 .384-2.112c0-.154.346.102 5.99-.243a8.648 8.648 0 0 0 1.357 4.006z" style="fill:var(--color1, #036)"/><path fill="#036" d="M11.981 13.005s-.742.218-.448.64c.499.755 1.357 2.074 2.202 2.125 1.446.077 3.149-3.93 3.763-5.235.191-.2.312-.456.346-.73a.444.444 0 0 0-.338-.391.449.449 0 0 0-.482.187c-.307.358-3.43 4.89-3.354 5.005-.243.038-1.51-1.485-1.69-1.6z" style="fill:var(--color1, #036)"/></symbol><symbol id="icon-check" viewBox="0 0 31 32"><path d="M21.056 7.13a.528.528 0 0 0-.512.41c-.333.474-4.557 6.4-5.696 8.23a48.272 48.272 0 0 1-1.165 1.702 36.356 36.356 0 0 0-1.139 1.69l-.73 1.203-.154.256c-1.446-2.266-3.418-3.84-3.84-3.674h-.192v.154a.502.502 0 0 0 0 .358 8.614 8.614 0 0 0 3.507 4.941c.133.102.294.16.461.166a.789.789 0 0 0 .461-.166c.192-.154 1.28-1.843 2.086-2.995s1.613-2.56 2.15-3.405c.538-.845 4.186-6.4 4.608-7.117.666-1.024.666-1.19.666-1.28a.51.51 0 0 0-.512-.473zM15.629.64a1.072 1.072 0 0 0-.717.909c-.077 1.28 0 1.818.294 2.061a.446.446 0 0 0 .307.102h.154c.282-.077.333-.371.41-.806.063-.385.166-.763.307-1.126.23-.512.115-.806 0-.96a.689.689 0 0 0-.755-.18zM26.368 5.363a1.076 1.076 0 0 0-1.152.141c-.934.832-1.28 1.28-1.28 1.664.012.08.043.157.089.224s.108.122.18.16a.368.368 0 0 0 .192 0 1.28 1.28 0 0 0 .666-.333 4.708 4.708 0 0 1 1.037-.602c.538-.205.653-.486.666-.691a.65.65 0 0 0-.397-.563zM30.72 16.269a1.072 1.072 0 0 0-.909-.717c-1.28-.077-1.818 0-2.061.294a.54.54 0 0 0-.09.461c.077.282.371.333.806.41a5.65 5.65 0 0 1 1.165.307c.163.084.342.132.525.141a.646.646 0 0 0 .435-.154.69.69 0 0 0 .128-.742zM24.192 24.615c-.08.012-.157.043-.224.089s-.122.108-.16.18c-.141.243 0 .486.282.858.244.318.446.667.602 1.037.205.538.486.653.691.666a.68.68 0 0 0 .589-.435 1.076 1.076 0 0 0-.141-1.152c-.806-.896-1.267-1.28-1.638-1.242zM15.053 28.25c-.282.077-.333.371-.41.806-.06.398-.163.789-.307 1.165-.23.512-.115.806 0 .96a.614.614 0 0 0 .448.179.807.807 0 0 0 .294 0 1.06 1.06 0 0 0 .717-.909c.077-1.28 0-1.818-.294-2.061a.528.528 0 0 0-.448-.141zM6.477 24.448c-.243-.141-.486 0-.858.282a4.731 4.731 0 0 1-1.037.602c-.538.205-.653.486-.666.691a.65.65 0 0 0 .435.614c.149.067.31.102.474.102.248.005.49-.082.678-.243.934-.832 1.28-1.28 1.28-1.664a.521.521 0 0 0-.307-.384zM2.304 15.283a5.588 5.588 0 0 1-1.165-.307c-.525-.23-.806-.115-.96 0a.667.667 0 0 0-.128.729 1.06 1.06 0 0 0 .909.717h.794c.717 0 1.088-.09 1.28-.32a.54.54 0 0 0 .09-.461c-.09-.23-.384-.282-.819-.358zM6.029 5.223c-.205-.538-.486-.653-.691-.666a.64.64 0 0 0-.614.435 1.076 1.076 0 0 0 .141 1.152c.794.896 1.28 1.28 1.6 1.28.08-.012.157-.043.224-.089s.122-.108.16-.18c.141-.243 0-.486-.282-.858a4.743 4.743 0 0 1-.538-1.075z"/></symbol></defs></svg>