<svg aria-hidden="true" style="position: absolute; width: 0; height: 0; overflow: hidden;"
    version="1.1" xmlns="http://www.w3.org/2000/svg" xmlns:xlink="http://www.w3.org/1999/xlink">
    <defs>
        <symbol id="icon-arrow-diag" viewBox="0 0 31 32">
            <path
                d="M11.796 8.16h10.691c0.189 0 0.37 0.075 0.504 0.209s0.209 0.315 0.209 0.504v10.691c0 0.394-0.319 0.713-0.713 0.713s-0.713-0.319-0.713-0.713v-8.97l-13.038 13.038c-0.278 0.278-0.73 0.278-1.008 0s-0.278-0.73 0-1.008l13.038-13.038h-8.97c-0.394 0-0.713-0.319-0.713-0.713s0.319-0.713 0.713-0.713z"></path>
        </symbol>
        <symbol id="icon-arrow-down" viewBox="0 0 32 32">
            <path stroke-linejoin="miter" stroke-linecap="butt" stroke-miterlimit="4"
                stroke-width="1.6" d="M8 12l8 8 8-8"></path>
        </symbol>
        <symbol id="icon-book" viewBox="0 0 33 32">
            <path fill="#343434" style="fill: var(--color1, #343434)"
                d="M19.837 3.013c-2.246 0.125-4.477 0.447-6.667 0.96-0.333 0-2.76 0.36-3.040 0.48-0.052 0.012-0.1 0.035-0.143 0.067s-0.077 0.073-0.102 0.12c-0.025 0.047-0.040 0.098-0.044 0.151s0.004 0.106 0.022 0.156c0.173 0.507 4.373 0 10.173-0.467 1.733-0.227 2.933-0.587 4.56-0.907 0.858-0.124 1.701-0.329 2.52-0.613 0.027-0.050 0.043-0.106 0.047-0.163s-0.003-0.114-0.022-0.168c-0.019-0.054-0.049-0.103-0.087-0.145s-0.086-0.075-0.138-0.098c-0.24-0.253-0.507-0.107-7.080 0.627z"></path>
            <path fill="#343434" style="fill: var(--color1, #343434)"
                d="M28.837 21.333v-15.48c0-0.133 0.2-0.667-0.387-0.667-0.12 0-2.2 0.413-2.333 0.44l-4.36 0.347c-2.773 0.267-5.56 0.36-8.333 0.547-3.773 0.267-4 0.507-5.547 0.307-0.573-0.080-1.147-0.147-1.333-0.493-0.088-0.23-0.103-0.481-0.043-0.719s0.191-0.453 0.376-0.614c1.373-1.68 4.187-2.333 6.307-2.853 4.893-1.187 6.573-0.747 10.013-0.973 1.96-0.133 3.2-0.267 3.067-0.867-0.009-0.051-0.029-0.1-0.058-0.144s-0.066-0.081-0.11-0.109-0.093-0.048-0.144-0.057c-0.051-0.009-0.104-0.008-0.155 0.004-4.76 1.027-7.293-1.013-16.68 1.853-4.867 1.547-6.2 6.667 0.013 6.533-0.882 6.562-1.083 13.197-0.6 19.8 0 1.080 0 1.733 0.4 1.867 0.787 0.227 0.627-1 0.587-1.867 0-7.787 0.36-5.187 0.373-14.667 0-5.787 0-5.24 0.133-5.253 4.28-0.613 13.333-1.133 17.853-2.067-0.4 26.667-0.147 10.733-0.093 17.987 0.014 0.371-0.013 0.742-0.080 1.107-0.16 1-11.373 3.933-13.827 4.533-3.133 0.787-5.547 1.013-8.507-0.347-1.333-2.773-0.827-17.267-0.573-20 0.011-0.103-0.020-0.205-0.085-0.285s-0.159-0.131-0.262-0.142-0.205 0.020-0.285 0.085c-0.080 0.065-0.131 0.159-0.142 0.262-0.333 2.747-1.2 16.787-0.107 20.2 0.293 0.933 0.693 1.12 1.52 1.467 1.715 0.782 3.603 1.103 5.48 0.933 4.558-0.757 9.026-1.981 13.333-3.653 1.166-0.311 2.311-0.698 3.427-1.16 2.253-1.213 1.187-3.48 1.16-5.853z"></path>
            <path fill="#036" style="fill: var(--color2, #036)"
                d="M13.583 17.613c0.84 0.227 1.72 0 7.587-1.027 0.88-0.16 2.24-0.24 2.667-1.080 0.252-0.793 0.302-1.636 0.147-2.453 0-0.64 0.76-3.493-0.853-3.427-0.080 0-9.627 1.493-10.227 1.507-0.117 0-0.229 0.046-0.311 0.129s-0.129 0.194-0.129 0.311c0 0.347 0.12-0.36 0 1.787 0.107 1.493-0.627 3.747 1.12 4.253zM13.463 12c1.013 0-1.733 0.080 9.587-0.893-0.307 4.387-0.107 3.613-2.093 4-6.547 1.333-7.013 1.627-7.293 1.333s-0.080-2.307-0.173-3.107c0-0.080-0.040-0.867-0.027-1.333z"></path>
            <path fill="#036" style="fill: var(--color2, #036)"
                d="M22.623 20c0.048-0.084 0.072-0.18 0.068-0.277s-0.034-0.191-0.088-0.271c-0.054-0.080-0.13-0.144-0.218-0.184s-0.186-0.054-0.282-0.041c-0.387 0-1.333 0.107-1.573 0.107-2.062-0.038-4.121 0.2-6.12 0.707-0.827-0.093-0.64 0.493-0.213 0.707 1.067 0.907 8.147-0.44 8.427-0.747z"></path>
            <path fill="#036" style="fill: var(--color2, #036)"
                d="M14.397 26.053c0.305 0.002 0.609-0.029 0.907-0.093 1.018-0.024 2.033-0.108 3.040-0.253 1.587-0.267 3.067-0.827 4.493-0.947 0.105-0.018 0.201-0.073 0.269-0.155s0.106-0.185 0.106-0.292-0.038-0.21-0.106-0.292c-0.069-0.082-0.164-0.137-0.269-0.155-3.627-0.307-8.587 1.333-8.693 1.64s0.067 0.453 0.253 0.547z"></path>
        </symbol>
        <symbol id="icon-light" viewBox="0 0 32 32">
            <path fill="#036" style="fill: var(--color2, #036)"
                d="M15.898 5.138c0.122 0 0.239-0.047 0.326-0.132s0.138-0.2 0.142-0.321c0.143-0.566 0.255-1.14 0.334-1.719 0.020-0.382 0.020-0.764 0-1.146-0.022-0.53-0.135-1.053-0.334-1.546-0.028-0.093-0.090-0.173-0.175-0.222s-0.184-0.065-0.279-0.044c-0.107 0-0.28 0.107-0.414 0.413-0.117 0.439-0.211 0.883-0.28 1.332-0.020 0.382-0.020 0.764 0 1.146 0 0.586 0.187 1.132 0.267 1.705-0.009 0.062-0.006 0.126 0.010 0.187s0.044 0.118 0.083 0.168c0.039 0.050 0.087 0.091 0.142 0.122s0.116 0.050 0.179 0.056z"></path>
            <path fill="#036" style="fill: var(--color2, #036)"
                d="M8.009 8.336c0.086-0.087 0.134-0.204 0.134-0.326s-0.048-0.239-0.134-0.326c-0.389-0.61-0.836-1.181-1.335-1.705-0.347-0.32-0.761-0.56-1.135-0.853l-1.068-0.533c-0.147-0.091-0.304-0.167-0.467-0.226-0.374 0-0.534 0.107-0.561 0.266-0.026 0.047-0.039 0.1-0.039 0.153s0.013 0.106 0.039 0.153c0.373 0.468 0.774 0.913 1.201 1.332 0.347 0.306 0.667 0.639 1.041 0.919s1.148 0.733 1.695 1.159c0.088 0.076 0.2 0.117 0.316 0.114s0.227-0.048 0.311-0.127z"></path>
            <path fill="#036" style="fill: var(--color2, #036)"
                d="M5.073 15.73c-0.641-0.162-1.301-0.238-1.962-0.226-0.367 0.002-0.734 0.037-1.095 0.107-0.489 0.136-0.989 0.225-1.495 0.267-0.053-0.014-0.107-0.018-0.161-0.011s-0.106 0.025-0.153 0.052-0.088 0.063-0.121 0.107c-0.033 0.043-0.057 0.092-0.071 0.145s-0.017 0.106-0.010 0.159c0.007 0.053 0.025 0.104 0.053 0.15s0.064 0.086 0.107 0.118 0.092 0.054 0.144 0.067c0.625 0.297 1.31 0.448 2.002 0.44 0.377-0.006 0.752-0.046 1.121-0.12 0.574-0.107 1.081-0.293 1.562-0.333 0.123 0.008 0.245-0.032 0.339-0.112s0.155-0.192 0.168-0.314c0.007-0.122-0.033-0.241-0.113-0.333s-0.193-0.149-0.314-0.16z"></path>
            <path fill="#036" style="fill: var(--color2, #036)"
                d="M28.219 4.006c-0.077-0.074-0.18-0.115-0.287-0.115s-0.21 0.041-0.287 0.115c-0.507 0.28-1.014 0.506-1.508 0.839-0.2 0.135-0.392 0.282-0.574 0.44l-0.507 0.506c-0.387 0.426-0.734 0.866-1.108 1.332-0.044 0.042-0.079 0.093-0.103 0.149s-0.036 0.116-0.036 0.177c0 0.061 0.012 0.121 0.036 0.177s0.059 0.107 0.103 0.149c0.087 0.082 0.201 0.127 0.32 0.127s0.234-0.045 0.32-0.127c0.507-0.293 0.988-0.56 1.468-0.893l0.587-0.426c0.186-0.155 0.36-0.324 0.521-0.506 0.387-0.426 0.694-0.893 1.055-1.332 0.045-0.037 0.081-0.084 0.106-0.137s0.038-0.111 0.038-0.169c0-0.058-0.013-0.116-0.038-0.169s-0.061-0.1-0.106-0.137z"></path>
            <path fill="#036" style="fill: var(--color2, #036)"
                d="M30.768 15.73c-0.16 0-0.307-0.067-0.467-0.080-0.222-0.020-0.445-0.020-0.667 0-0.587 0.080-1.108 0.28-1.682 0.413-0.109 0.019-0.207 0.075-0.278 0.159s-0.11 0.191-0.11 0.301c0 0.11 0.039 0.217 0.11 0.301s0.17 0.14 0.278 0.159c0.576 0.122 1.161 0.198 1.749 0.227 0.23-0.004 0.458-0.035 0.681-0.093 0.155-0.037 0.307-0.086 0.454-0.147 0.312-0.082 0.612-0.203 0.894-0.36 0.174-0.16 0.294-0.28 0.267-0.426 0.040-0.413-0.534-0.333-1.228-0.453z"></path>
            <path fill="#343434" style="fill: var(--color1, #343434)"
                d="M20.023 8.003c-1.915-1.004-4.131-1.278-6.234-0.773-1.61 0.452-3.068 1.328-4.223 2.535s-1.965 2.701-2.344 4.327c-0.247 1.142-0.247 2.322 0 3.464 0.23 1.127 0.684 2.196 1.335 3.144 0.193 0.274 0.412 0.528 0.654 0.759 0.457 0.425 0.974 0.78 1.535 1.052 0.050 0.192 0.077 0.388 0.080 0.586v1.812c-0.361 0.265-0.628 0.639-0.761 1.066-0.12 0.383-0.148 0.79-0.080 1.186 0.040 0.324 0.164 0.632 0.36 0.893 0.138 0.166 0.3 0.309 0.481 0.426-0.306 0.379-0.483 0.846-0.507 1.332-0.033 0.266-0.006 0.535 0.080 0.789s0.227 0.485 0.414 0.677c0.349 0.315 0.779 0.527 1.241 0.613 0.604 0.1 1.218 0.131 1.829 0.093 0.493 0.002 0.985-0.048 1.468-0.147 0.049-0.045 0.086-0.102 0.11-0.164s0.031-0.13 0.024-0.196c-0.008-0.066-0.032-0.13-0.069-0.185s-0.087-0.102-0.145-0.134c-0.195-0.017-0.392-0.017-0.587 0h-0.801c-0.52-0.002-1.039-0.055-1.548-0.16-0.27-0.068-0.516-0.211-0.707-0.413-0.064-0.082-0.107-0.178-0.128-0.279s-0.018-0.207 0.008-0.307c0.026-0.278 0.14-0.541 0.324-0.752s0.431-0.358 0.703-0.421c0.4 0 1.175 0.2 2.096 0.266 0.342 0.020 0.685 0.020 1.028 0h0.908c0.715-0.119 1.423-0.275 2.122-0.466l0.36-0.093c0.014 0.093 0.014 0.187 0 0.28 0.004 0.322-0.050 0.643-0.16 0.946-0.235 0.42-0.6 0.752-1.041 0.946-0.189 0.14-0.406 0.238-0.637 0.286s-0.469 0.046-0.698-0.006c-0.112-0.052-0.24-0.058-0.356-0.019s-0.214 0.123-0.271 0.232c-0.051 0.11-0.057 0.235-0.018 0.35s0.123 0.209 0.231 0.263c0.355 0.128 0.734 0.176 1.11 0.142s0.74-0.151 1.066-0.342c0.729-0.262 1.346-0.765 1.749-1.426 0.238-0.526 0.343-1.103 0.307-1.679-0.014-0.371-0.15-0.727-0.387-1.013 0.192-0.162 0.355-0.355 0.481-0.573 0.137-0.252 0.188-0.542 0.147-0.826-0.039-0.292-0.142-0.573-0.301-0.821s-0.371-0.459-0.62-0.618c0-0.44-0.093-0.933-0.080-1.412-0.013-0.115-0.013-0.231 0-0.346 0.291-0.095 0.566-0.235 0.814-0.413 0.441-0.32 0.894-0.64 1.335-0.999 0.295-0.256 0.567-0.537 0.814-0.839 0.833-1.109 1.412-2.387 1.695-3.744 0.341-1.369 0.341-2.801 0-4.17-0.342-1.032-0.891-1.984-1.614-2.797s-1.605-1.471-2.591-1.932zM16.539 27.481h-1.935c-0.953 0.114-1.917 0.114-2.87 0-0.107 0-0.174-0.133-0.24-0.213-0.015-0.079-0.015-0.161 0-0.24-0.041-0.175-0.041-0.358 0-0.533 0.049-0.13 0.138-0.242 0.254-0.32 0.288-0.178 0.611-0.292 0.948-0.333 0.628-0.092 1.261-0.15 1.895-0.173 1.115-0.155 2.244-0.177 3.364-0.067 0.28 0 1.241 0.453 1.175 0.919-0.063 0.275-0.208 0.525-0.415 0.717s-0.467 0.318-0.747 0.362c-0.414 0-0.894-0.093-1.428-0.12zM22.973 16.663c-0.199 1.185-0.655 2.313-1.335 3.304-0.195 0.255-0.41 0.496-0.641 0.719-0.379 0.345-0.78 0.666-1.201 0.959-0.134 0.107-0.681 0.28-0.868 0.44-0.109 0.078-0.189 0.191-0.227 0.32-0.091 0.274-0.127 0.564-0.107 0.853 0.007 0.321 0.034 0.641 0.080 0.959-1.369-0.254-2.77-0.295-4.151-0.12-0.698 0.025-1.394 0.096-2.082 0.213-0.231 0.051-0.459 0.117-0.681 0.2v-0.12c0-0.373 0.080-1.013 0.067-1.546 0-0.289-0.059-0.574-0.174-0.839-0.074-0.126-0.174-0.235-0.294-0.32-0.267-0.147-0.681-0.36-0.761-0.36-0.22-0.159-0.425-0.338-0.614-0.533-0.186-0.196-0.351-0.41-0.494-0.64-0.538-0.861-0.897-1.822-1.054-2.825-0.162-0.98-0.117-1.983 0.133-2.944 0.378-1.358 1.105-2.593 2.109-3.584 0.975-0.999 2.201-1.717 3.551-2.078 1.736-0.416 3.563-0.199 5.152 0.613 0.801 0.364 1.52 0.886 2.114 1.534s1.051 1.409 1.344 2.237c0.332 1.158 0.378 2.378 0.133 3.557z"></path>
            <path fill="#343434" style="fill: var(--color1, #343434)"
                d="M19.663 13.212c-0.187-0.419-0.44-0.805-0.747-1.146-0.238-0.232-0.508-0.429-0.801-0.586-0.302-0.18-0.639-0.293-0.988-0.333-0.265-0.050-0.536-0.050-0.801 0-0.32 0.147-0.467 0.346-0.347 0.626s0.641 0.173 0.921 0.293c0.19 0.080 0.359 0.203 0.494 0.36 0.149 0.161 0.283 0.335 0.4 0.52 0.213 0.321 0.388 0.665 0.521 1.026 0.165 0.369 0.294 0.753 0.387 1.146 0.126 0.521 0.126 1.064 0 1.585-0.044 0.115-0.040 0.242 0.010 0.355s0.142 0.2 0.257 0.245c0.115 0.040 0.242 0.035 0.353-0.015s0.2-0.14 0.248-0.252c0.39-0.83 0.521-1.759 0.374-2.665-0.042-0.397-0.136-0.787-0.28-1.159z"></path>
        </symbol>
        <symbol id="icon-minus" viewBox="0 0 32 32">
            <path
                d="M25.333 14.667h-18.667c-0.354 0-0.693 0.141-0.943 0.391s-0.391 0.589-0.391 0.943c0 0.354 0.14 0.693 0.391 0.943s0.589 0.391 0.943 0.391h18.667c0.354 0 0.693-0.141 0.943-0.391s0.391-0.589 0.391-0.943c0-0.354-0.141-0.693-0.391-0.943s-0.589-0.391-0.943-0.391z"></path>
        </symbol>
        <symbol id="icon-plus" viewBox="0 0 32 32">
            <path
                d="M25.333 14.667h-8v-8c0-0.354-0.141-0.693-0.391-0.943s-0.589-0.391-0.943-0.391c-0.354 0-0.693 0.14-0.943 0.391s-0.391 0.589-0.391 0.943v8h-8c-0.354 0-0.693 0.141-0.943 0.391s-0.391 0.589-0.391 0.943c0 0.354 0.14 0.693 0.391 0.943s0.589 0.391 0.943 0.391h8v8c0 0.354 0.141 0.693 0.391 0.943s0.589 0.391 0.943 0.391c0.354 0 0.693-0.141 0.943-0.391s0.391-0.589 0.391-0.943v-8h8c0.354 0 0.693-0.141 0.943-0.391s0.391-0.589 0.391-0.943c0-0.354-0.141-0.693-0.391-0.943s-0.589-0.391-0.943-0.391z"></path>
        </symbol>
        <symbol id="icon-rating-star" viewBox="0 0 32 32">
            <path
                d="M15.196 1.933c0.297-0.715 1.311-0.715 1.608 0l3.608 8.676c0.125 0.302 0.409 0.508 0.734 0.534l9.366 0.751c0.772 0.062 1.085 1.025 0.497 1.529l-7.136 6.113c-0.248 0.212-0.356 0.546-0.28 0.863l2.18 9.14c0.18 0.753-0.64 1.349-1.301 0.945l-8.019-4.898c-0.279-0.17-0.629-0.17-0.908 0l-8.019 4.898c-0.661 0.404-1.481-0.192-1.301-0.945l2.18-9.14c0.076-0.318-0.033-0.651-0.281-0.863l-7.136-6.113c-0.588-0.504-0.275-1.467 0.497-1.529l9.366-0.751c0.325-0.026 0.609-0.232 0.734-0.534l3.608-8.676z"></path>
        </symbol>
        <symbol id="icon-rocket" viewBox="0 0 33 32">
            <path fill="#343434" style="fill: var(--color1, #343434)"
                d="M23.58 12.671c0.096-0.332 0.165-0.67 0.207-1.012 0.013-0.248 0.013-0.497 0-0.745 0.091-0.639-0.062-1.288-0.43-1.827s-0.926-0.93-1.571-1.101c-1.66-0.174-3.336 0.117-4.829 0.838-1.224 0.545-2.308 1.345-3.173 2.343-1.036 1.173-1.985 2.413-2.842 3.713-0.088-0.005-0.175 0.019-0.248 0.067-0.666 0.426-1.384 0.77-2.138 1.025-0.727 0.251-1.491 0.385-2.263 0.399-0.54-0.070-1.074-0.172-1.6-0.306-0.365-0.057-0.738-0.029-1.090 0.080-0.408 0.161-0.772 0.412-1.062 0.732-0.335 0.39-0.64 0.804-0.911 1.238-0.658 0.778-1.129 1.687-1.38 2.662-0.003 0.392 0.102 0.778 0.303 1.12s0.492 0.625 0.842 0.824l1.462 0.905c0.047 0.034 0.1 0.058 0.157 0.071s0.116 0.016 0.173 0.007c0.058-0.009 0.113-0.028 0.163-0.058s0.093-0.068 0.127-0.114c0.065-0.094 0.090-0.209 0.070-0.321s-0.085-0.211-0.18-0.278l-1.38-0.972c-0.483-0.413-0.648-0.759-0.607-1.091 0.068-0.261 0.19-0.505 0.359-0.719 0.193-0.266 0.428-0.532 0.662-0.825 0.295 0.356 0.613 0.694 0.952 1.012 0.159 0.159 0.335 0.302 0.524 0.426 0.182 0.135 0.376 0.255 0.579 0.359 0.455 0.253 0.924 0.466 1.38 0.692l-2.759 3.886c-0.059 0.083-0.082 0.186-0.064 0.285s0.076 0.188 0.161 0.247c0.065 0.049 0.145 0.075 0.228 0.075s0.162-0.026 0.228-0.075c-0.015 0.079-0.002 0.161 0.038 0.231s0.105 0.125 0.182 0.155c0.434 0.468 0.894 0.912 1.38 1.331 0.235 0.168 0.479 0.323 0.731 0.466 0.251 0.145 0.514 0.27 0.786 0.373 0.637 0.248 1.298 0.435 1.973 0.559 0.113 0.038 0.238 0.032 0.347-0.018s0.192-0.139 0.233-0.248c0.035-0.108 0.023-0.224-0.031-0.324s-0.147-0.175-0.259-0.208c-0.593-0.293-1.104-0.652-1.656-0.985s-0.731-0.453-1.104-0.652c-0.662-0.333-1.38-0.586-2.028-0.918-0.052-0.029-0.112-0.045-0.172-0.045s-0.12 0.015-0.172 0.045l2.414-3.114c0.021 0.051 0.054 0.097 0.097 0.133 0.538 0.466 0.993 0.998 1.518 1.464 0.36 0.319 0.742 0.612 1.145 0.878 0.704 0.445 1.459 0.812 2.249 1.091 0.107 0.040 0.225 0.040 0.331 0l-0.235 0.293c-0.648 0.918-1.421 1.77-2.028 2.542-0.082 0.080-0.128 0.187-0.128 0.299s0.046 0.22 0.128 0.299c0.085 0.080 0.199 0.124 0.317 0.124s0.232-0.045 0.317-0.124c0.373-0.386 0.759-0.839 1.173-1.331-0.042 0.028-0.077 0.064-0.105 0.105s-0.046 0.087-0.055 0.136c-0.009 0.048-0.008 0.098 0.003 0.145s0.031 0.093 0.060 0.133c0.309 0.683 0.781 1.285 1.38 1.757 0.357 0.266 0.752 0.482 1.173 0.639 0.612 0.233 1.245 0.411 1.89 0.532 0.317 0.106 2.497-2.396 2.539-2.449 0.396-0.493 0.67-1.066 0.8-1.677 0.044-0.337 0.006-0.678-0.11-0.998-0.166-0.506-0.524-1.025-0.621-1.451-0.235-0.801-0.351-1.63-0.345-2.462-0.017-0.844 0.109-1.684 0.372-2.489 0.007-0.035 0.007-0.071 0-0.106 1.156-1.135 2.252-2.325 3.284-3.567 1.006-1.215 1.734-2.621 2.139-4.126zM17.482 10.169c1.197-0.602 2.546-0.865 3.891-0.759 0.579 0.146 0.938 0.612 0.966 1.544 0.027 0.226 0.027 0.453 0 0.679-0.033 0.242-0.079 0.482-0.138 0.719-0.216 0.897-0.58 1.755-1.076 2.542 0.027-0.341 0.027-0.684 0-1.025-0.014-0.457-0.112-0.907-0.29-1.331-0.196-0.42-0.494-0.788-0.868-1.073s-0.815-0.479-1.284-0.564c-1.049-0.152-2.122 0.006-3.077 0.453 0.55-0.496 1.185-0.897 1.876-1.185zM5.369 20.045c-0.165-0.152-0.341-0.295-0.524-0.426-0.18-0.132-0.369-0.252-0.566-0.359-0.416-0.23-0.844-0.439-1.283-0.626 0.19-0.285 0.402-0.557 0.635-0.812 0.14-0.15 0.309-0.272 0.497-0.359 0.127-0.027 0.259-0.027 0.386 0 0.614 0.117 1.237 0.179 1.863 0.186 0.901-0.11 1.777-0.361 2.594-0.745 0.29-0.133 0.566-0.293 0.842-0.453l-3.353 4.658c-0.373-0.359-0.704-0.719-1.090-1.065zM11.729 25.688c-0.562-0.411-1.096-0.856-1.6-1.331-0.359-0.293-0.717-0.599-1.118-0.865-0.692-0.437-1.421-0.815-2.18-1.131 0 0-0.083 0-0.124 0l4.787-6.149c1.052-1.434 2.185-2.812 3.394-4.126v-0.040c0.020 0.046 0.048 0.087 0.085 0.122s0.080 0.062 0.127 0.081 0.098 0.028 0.15 0.027c0.051-0.001 0.102-0.011 0.149-0.031 0.805-0.233 1.656-0.278 2.483-0.133 0.352 0.051 0.689 0.168 0.993 0.346 0.29 0.143 0.529 0.366 0.69 0.639 0.215 0.351 0.356 0.74 0.414 1.145 0.060 0.441 0.087 0.886 0.083 1.331-0.011 0.084 0.004 0.17 0.043 0.245s0.101 0.139 0.178 0.18c-1.269 1.677-2.87 3.194-4.139 4.765s-2.759 3.434-4.208 5.324c0.015-0.079 0.003-0.161-0.035-0.233s-0.098-0.13-0.172-0.166zM15.744 30.732c-0.054 0.079-0.083 0.172-0.083 0.266-0.593-0.319-1.2-0.719-1.835-1.118-0.214-0.135-0.435-0.259-0.662-0.373-0.221-0.133-0.455-0.226-0.676-0.359-0.276-0.161-0.531-0.353-0.759-0.572-0.029-0.040-0.066-0.075-0.109-0.101s-0.090-0.044-0.14-0.053c-0.050-0.009-0.101-0.008-0.151 0.003s-0.097 0.030-0.138 0.058l0.938-1.145 0.759-0.892c0 0.048 0.012 0.096 0.033 0.14s0.053 0.082 0.091 0.113c0.304 0.399 0.552 0.825 0.883 1.211 0.137 0.168 0.289 0.324 0.455 0.466 0.166 0.139 0.341 0.268 0.524 0.386 0.436 0.291 0.898 0.544 1.38 0.759 0.094 0.059 0.207 0.083 0.317 0.067-0.235 0.413-0.552 0.799-0.828 1.145zM17.123 28.869l-0.138 0.2c-0.028-0.098-0.086-0.186-0.166-0.253-0.372-0.346-0.662-0.732-1.007-1.091-0.226-0.243-0.471-0.47-0.731-0.679-0.478-0.336-0.981-0.638-1.504-0.905-0.049-0.036-0.104-0.061-0.164-0.075s-0.121-0.015-0.181-0.005c1.283-1.531 2.566-3.101 3.642-4.326-0.106 0.358-0.184 0.723-0.235 1.091-0.127 0.953-0.095 1.919 0.097 2.862 0.124 0.466 0.483 1.038 0.69 1.571 0.067 0.119 0.104 0.251 0.11 0.386-0.032 0.435-0.174 0.855-0.414 1.224z"></path>
            <path fill="#343434" style="fill: var(--color1, #343434)"
                d="M26.133 17.835c0.773-1.091 1.545-2.169 2.194-3.314 0.446-0.787 0.828-1.606 1.145-2.449 0.471-1.555 0.584-3.19 0.331-4.792-0.418-2.252-0.989-4.475-1.711-6.655-0.023-0.087-0.077-0.163-0.153-0.214s-0.169-0.075-0.261-0.065c-0.014-0.089-0.059-0.171-0.126-0.234s-0.154-0.102-0.247-0.113c-1.627 0.047-3.25 0.198-4.856 0.453-1.119 0.182-2.215 0.476-3.27 0.878-1.043 0.426-2.023 0.986-2.911 1.664-1.286 1.043-2.494 2.173-3.615 3.381-0.704 0.745-1.449 1.477-2.139 2.236-0.49 0.512-0.951 1.050-1.38 1.611-0.068 0.073-0.105 0.168-0.105 0.266s0.037 0.193 0.105 0.266c0.045 0.047 0.102 0.083 0.165 0.104s0.131 0.027 0.196 0.016c0.066-0.011 0.128-0.037 0.18-0.076s0.094-0.091 0.121-0.15c0.431-0.504 0.892-0.984 1.38-1.437 0.759-0.692 1.573-1.331 2.332-2.023 1.143-1.086 2.345-2.112 3.601-3.075 0.805-0.62 1.685-1.143 2.621-1.557 0.93-0.417 1.9-0.742 2.897-0.972 1.541-0.34 3.103-0.58 4.677-0.719 0.511 2.164 0.894 4.355 1.145 6.562 0.163 1.412 0.012 2.841-0.442 4.193-0.283 0.777-0.625 1.533-1.021 2.263-0.593 1.131-1.256 2.223-1.945 3.314-0.472 0.777-0.988 1.528-1.545 2.249-0.532 0.721-1.103 1.414-1.711 2.076-0.083 0.082-0.129 0.192-0.129 0.306s0.046 0.224 0.129 0.306c0.083 0.079 0.194 0.123 0.31 0.123s0.228-0.044 0.31-0.123c0.693-0.655 1.352-1.344 1.973-2.063 0.607-0.719 1.187-1.437 1.752-2.236z"></path>
            <path fill="#036" style="fill: var(--color2, #036)"
                d="M32.024 14.641c-0.235-0.865-0.579-1.717-0.828-2.462-0.029-0.096-0.096-0.178-0.186-0.227s-0.197-0.064-0.297-0.039c-0.099 0.025-0.183 0.087-0.235 0.171s-0.067 0.186-0.041 0.281c0.166 0.759 0.428 1.624 0.566 2.476 0.082 0.507 0.082 1.024 0 1.531-0.063 0.379-0.184 0.747-0.359 1.091-0.276 0.586-0.621 1.131-0.938 1.69-0.58 1.116-1.254 2.184-2.014 3.194-1.131 1.584-2.345 3.114-3.491 4.698-0.067 0.093-0.094 0.207-0.076 0.318s0.080 0.212 0.173 0.281c0.046 0.034 0.099 0.059 0.155 0.074s0.115 0.018 0.173 0.011c0.058-0.007 0.113-0.026 0.164-0.054s0.094-0.066 0.13-0.11c1.476-1.744 3.132-3.381 4.511-5.204 0.606-0.81 1.146-1.665 1.614-2.555 0.29-0.612 0.635-1.211 0.869-1.85 0.186-0.469 0.298-0.963 0.331-1.464 0.027-0.624-0.048-1.248-0.221-1.85z"></path>
            <path fill="#036" style="fill: var(--color2, #036)"
                d="M2.554 11.207l3.035-3.713c0.538-0.745 1.062-1.61 1.683-2.369 0.211-0.293 0.451-0.565 0.717-0.812 0.233-0.191 0.499-0.34 0.786-0.439 0.524-0.2 1.090-0.306 1.656-0.466 0.924-0.28 1.78-0.612 2.677-0.839 0.581-0.155 1.178-0.249 1.78-0.28 0.104 0 0.204-0.039 0.278-0.108s0.118-0.164 0.122-0.264c-0.003-0.101-0.047-0.198-0.121-0.269s-0.174-0.113-0.279-0.117c-0.66-0.021-1.321 0.019-1.973 0.12-0.938 0.133-1.835 0.359-2.759 0.532-0.618 0.089-1.23 0.209-1.835 0.359-0.468 0.147-0.903 0.377-1.283 0.679-0.479 0.412-0.901 0.882-1.256 1.398-0.497 0.705-0.883 1.491-1.38 2.183s-0.552 1.051-0.924 1.571c-0.538 0.785-1.090 1.557-1.628 2.276-0.036 0.044-0.062 0.095-0.077 0.15s-0.019 0.111-0.011 0.166c0.008 0.056 0.027 0.109 0.056 0.158s0.068 0.091 0.115 0.125c0.089 0.071 0.203 0.106 0.319 0.098s0.223-0.057 0.302-0.138z"></path>
        </symbol>
        <symbol id="icon-star" viewBox="0 0 32 32">
            <path
                d="M17.657 2.643l-0.917 0.543c-1.007 0.596-1.511 0.895-2.066 0.964s-1.098-0.098-2.184-0.432l-0.989-0.304c-3.822-1.176-5.734-1.764-6.882-0.713s-0.774 3.046-0.026 7.036l0.194 1.032c0.213 1.134 0.319 1.7 0.193 2.254s-0.471 1.032-1.16 1.988l-0.627 0.87c-2.425 3.364-3.637 5.046-3.045 6.44s2.595 1.578 6.602 1.944l1.037 0.095c1.139 0.104 1.708 0.156 2.185 0.429s0.807 0.735 1.467 1.66l0.601 0.842c2.324 3.255 3.486 4.883 5 4.693s2.378-2.071 4.106-5.834l0.447-0.974c0.251-0.547 0.438-0.953 0.617-1.272l7.342 7.343c0.469 0.469 1.228 0.469 1.697 0s0.469-1.228 0-1.697l-7.091-7.091c0.195-0.071 0.413-0.147 0.659-0.233l0.999-0.35c3.861-1.352 5.791-2.028 6.136-3.54s-1.125-2.858-4.064-5.55l-0.76-0.697c-0.835-0.765-1.253-1.148-1.47-1.658s-0.208-1.092-0.19-2.255l0.016-1.058c0.062-4.091 0.093-6.136-1.208-6.881s-3.073 0.305-6.618 2.404z"></path>
        </symbol>
        <symbol id="icon-clock" viewBox="0 0 31 32">
            <path fill="#036" style="fill: var(--color1, #036)"
                d="M24.102 9.92c-0.368-0.328-0.757-0.631-1.165-0.909l0.102-0.090c0.077-0.090 0.23-0.166 0.346-0.282 0.141-0.159 0.261-0.336 0.358-0.525 0.064-0.128 0.115-0.256 0.166-0.371l0.717 0.384c0.148 0.105 0.307 0.195 0.474 0.269 0.256 0.077 0.422 0 0.499 0s0.192-0.179 0.166-0.358c-0.002-0.083-0.026-0.165-0.072-0.235s-0.109-0.126-0.184-0.162c0-0.077-0.179-0.23-0.205-0.269l-0.653-0.742c-0.247-0.218-0.508-0.419-0.781-0.602-0.218-0.128-0.448-0.192-0.666-0.294-0.73-0.294-0.896-0.435-1.152-0.333s-0.384 0.333 0 0.73c0.196 0.222 0.405 0.431 0.627 0.627 0.154 0.128 0.282 0.282 0.422 0.422l-0.141 0.077c-0.166 0.154-0.397 0.243-0.563 0.41-0.163 0.164-0.297 0.355-0.397 0.563v0.205c-1.742-0.934-3.652-1.512-5.619-1.702v-0.205c0.013-0.158 0.013-0.316 0-0.474 0.018-0.153 0.018-0.308 0-0.461 0-0.294-0.141-0.614-0.243-1.024 0.73 0 1.459-0.128 2.202-0.243 0.1-0.010 0.192-0.058 0.256-0.135s0.097-0.175 0.090-0.275c-0.005-0.051-0.020-0.1-0.044-0.144s-0.056-0.084-0.096-0.117-0.084-0.056-0.133-0.071c-0.049-0.015-0.1-0.019-0.15-0.014-0.972 0.058-1.947 0.058-2.918 0-0.623-0.073-1.24-0.197-1.843-0.371-0.202-0.060-0.389-0.16-0.55-0.294-0.128-0.090-0.307-0.154-0.256-0.294 0.095-0.152 0.233-0.272 0.397-0.346 0.109-0.065 0.232-0.104 0.358-0.115 0.832-0.064 1.779-0.192 2.688-0.243 0.367-0.019 0.734-0.019 1.101 0 0.35-0.020 0.7-0.020 1.050 0 0.173 0.019 0.339 0.075 0.486 0.166 0.113 0.078 0.192 0.198 0.218 0.333 0.045 0.181 0.045 0.37 0 0.55-0.015 0.055-0.020 0.113-0.013 0.171s0.025 0.112 0.054 0.162c0.029 0.050 0.067 0.094 0.112 0.129s0.098 0.061 0.153 0.076c0.11 0.032 0.229 0.019 0.329-0.037s0.176-0.148 0.208-0.258c0.109-0.385 0.109-0.793 0-1.178-0.079-0.297-0.249-0.561-0.486-0.755-0.256-0.2-0.553-0.34-0.87-0.41-0.384-0.078-0.773-0.129-1.165-0.154-0.535-0.059-1.074-0.081-1.613-0.064-0.794 0-1.6 0.064-2.33 0.077-0.433 0.023-0.851 0.169-1.203 0.422-0.38 0.25-0.678 0.606-0.858 1.024-0.092 0.264-0.107 0.548-0.044 0.82s0.203 0.52 0.402 0.716c0.437 0.409 0.985 0.68 1.574 0.781 0.658 0.085 1.321 0.119 1.984 0.102-0.090 0.384-0.166 0.691-0.218 0.973-0.011 0.158-0.011 0.316 0 0.474v0.474c-0.004 0.030-0.004 0.060 0 0.090-1.104-0.046-2.21 0.014-3.302 0.179-1.935 0.355-3.73 1.25-5.177 2.581s-2.488 3.046-3.002 4.945c-1.166 3.71-0.821 7.73 0.96 11.187 2.202 4.122 7.821 6.285 13.005 5.734 12.736-1.293 12.083-16.358 6.605-21.299zM23.629 27.725c-1.28 1.549-4.442 2.227-8.269 2.432s-6.093-1.792-8.666-3.84c-0.361-0.416-0.666-0.876-0.909-1.37-1.566-3.131-1.855-6.747-0.806-10.086 0.489-1.636 1.367-3.13 2.56-4.352 1.246-1.158 2.78-1.963 4.442-2.33 2.084-0.368 4.22-0.32 6.285 0.141 1.842 0.495 3.577 1.323 5.12 2.445 2.018 2.417 3.167 5.441 3.264 8.589 0.077 3.366-1.050 6.733-3.021 8.371z"></path>
            <path fill="#343434" style="fill: var(--color2, #343434)"
                d="M15.616 28.48c0 0-0.077-1.869-0.525-1.869-0.141 0-0.243 0.077-0.371 0.23-0.097 0.238-0.161 0.488-0.192 0.742-0.057 0.208-0.083 0.424-0.077 0.64 0.006 0.207 0.031 0.413 0.077 0.614 0.125 0.133 0.292 0.219 0.474 0.243 0.614 0 0.602-0.41 0.614-0.602z"></path>
            <path fill="#343434" style="fill: var(--color2, #343434)"
                d="M15.616 9.6c0 0-0.077 1.869-0.525 1.869-0.141 0-0.243 0-0.371-0.23-0.098-0.237-0.163-0.487-0.192-0.742-0.057-0.204-0.083-0.415-0.077-0.627s0.032-0.421 0.077-0.627c0.125-0.133 0.292-0.219 0.474-0.243 0.614-0.013 0.602 0.41 0.614 0.602z"></path>
            <path fill="#343434" style="fill: var(--color2, #343434)"
                d="M23.744 17.945c-0.435 0.090-0.819 0.282-1.28 0.358-0.092 0-0.18 0.036-0.244 0.101s-0.101 0.153-0.101 0.244 0.036 0.18 0.101 0.244c0.065 0.065 0.153 0.101 0.244 0.101 0.465 0.077 0.937 0.103 1.408 0.077 0.256 0 0.525-0.077 0.806-0.090l0.384-0.077c0.084-0.087 0.137-0.199 0.151-0.32s-0.012-0.242-0.075-0.346c-0.046-0.088-0.111-0.165-0.191-0.225s-0.172-0.101-0.27-0.12c-0.312-0.020-0.626-0.003-0.934 0.051z"></path>
            <path fill="#343434" style="fill: var(--color2, #343434)"
                d="M22.592 25.331c-0.135-0.191-0.28-0.375-0.435-0.55-0.187-0.202-0.393-0.386-0.614-0.55-0.203-0.163-0.417-0.313-0.64-0.448-0.084-0.056-0.181-0.092-0.282-0.102-0.092 0-0.18 0.036-0.244 0.101s-0.101 0.153-0.101 0.244c0 0.166-0.077 0 0.589 0.883 0.102 0.141 0.192 0.333 0.333 0.525 0.135 0.179 0.285 0.345 0.448 0.499 0.056 0.058 0.124 0.104 0.199 0.135s0.155 0.046 0.236 0.044c0.384-0.090 0.717-0.499 0.512-0.781z"></path>
            <path fill="#343434" style="fill: var(--color2, #343434)"
                d="M20.582 11.84c-0.102 0.192-0.179 0.384-0.256 0.538s-0.32 0.474-0.384 0.653c-0.039 0.080-0.060 0.167-0.064 0.256 0 0.092 0.036 0.18 0.101 0.244s0.153 0.101 0.244 0.101c0 0 0.077 0.115 0.896-0.678l0.358-0.384c0.102-0.131 0.196-0.268 0.282-0.41 0.077-0.128 0.141-0.256 0.205-0.384 0.019-0.042 0.030-0.088 0.030-0.134s-0.010-0.092-0.030-0.134c-0.077-0.41-0.32-0.55-0.819-0.371-0.102 0.090-0.128 0-0.218 0.166-0.131 0.168-0.247 0.348-0.346 0.538z"></path>
            <path fill="#343434" style="fill: var(--color2, #343434)"
                d="M7.283 17.728c0.422 0.090 0.806 0.282 1.28 0.358 0.092 0 0.18 0.036 0.244 0.101s0.101 0.153 0.101 0.244-0.036 0.179-0.101 0.244c-0.065 0.065-0.153 0.101-0.244 0.101-0.464 0.082-0.937 0.108-1.408 0.077-0.269 0-0.538-0.077-0.819-0.090l-0.384-0.077c-0.084-0.087-0.137-0.199-0.151-0.32s0.012-0.242 0.075-0.346c0.23-0.333 0.461-0.346 0.461-0.346 0.317-0.020 0.635-0.002 0.947 0.051z"></path>
            <path fill="#343434" style="fill: var(--color2, #343434)"
                d="M8.064 24.755c0.131-0.194 0.276-0.378 0.435-0.55 0.186-0.196 0.392-0.372 0.614-0.525 0.203-0.163 0.417-0.313 0.64-0.448 0.084-0.056 0.181-0.092 0.282-0.102 0.092 0 0.18 0.036 0.244 0.101s0.101 0.153 0.101 0.244c0 0.166 0.077 0-0.589 0.883-0.102 0.141-0.192 0.333-0.333 0.525-0.135 0.178-0.285 0.345-0.448 0.499-0.056 0.058-0.124 0.104-0.199 0.135s-0.155 0.046-0.236 0.044c-0.384-0.115-0.717-0.525-0.512-0.806z"></path>
            <path fill="#343434" style="fill: var(--color2, #343434)"
                d="M10.432 11.84c0.102 0.192 0.179 0.384 0.256 0.538s0.32 0.474 0.384 0.653c0.023 0.084 0.023 0.172 0 0.256 0 0.089-0.035 0.175-0.097 0.24s-0.147 0.102-0.236 0.106c0 0-0.090 0.115-0.909-0.678l-0.346-0.384c-0.080-0.133-0.152-0.269-0.218-0.41-0.077-0.128-0.141-0.256-0.205-0.384-0.032-0.087-0.032-0.182 0-0.269 0.077-0.41 0.333-0.55 0.819-0.371 0.102 0.090 0.128 0 0.23 0.166 0.123 0.169 0.23 0.349 0.32 0.538z"></path>
        </symbol>
        <symbol id="icon-english" viewBox="0 0 31 32">
            <path fill="#036" style="fill: var(--color1, #036)"
                d="M30.451 7.283c-0.292-1.474-0.99-2.836-2.014-3.935s-2.335-1.89-3.784-2.285c-1.559-0.343-3.18-0.263-4.698 0.23-1.495 0.475-2.826 1.363-3.84 2.56-1.386 1.745-2.152 3.903-2.176 6.131-0.067 1.111 0.162 2.22 0.664 3.214s1.257 1.837 2.191 2.444c0.563 0.371 0.358-0.179-0.358 2.816-0.563 1.907-0.474 1.459-0.448 1.651 0.005 0.14 0.055 0.274 0.141 0.384 0.090 0.128 0.221 0.223 0.371 0.269 0.39 0.107 0.805 0.080 1.178-0.077 0.576-0.28 1.113-0.633 1.6-1.050l1.83-1.498c0.046-0.029 0.085-0.066 0.116-0.11s0.052-0.094 0.063-0.147c0.011-0.053 0.011-0.107-0-0.16s-0.032-0.103-0.063-0.147c-0.060-0.089-0.153-0.151-0.258-0.173s-0.215-0.001-0.305 0.058l-2.022 1.203c-0.351 0.221-0.714 0.422-1.088 0.602l0.102-0.499c0.051-0.307 0.090-0.614 0.115-0.922 0-0.691 0-1.37 0.115-2.048 0-0.192-0.154-0.269-0.282-0.422-0.114-0.142-0.258-0.255-0.422-0.333-0.795-0.562-1.426-1.325-1.828-2.211s-0.562-1.863-0.463-2.832c0.083-1.965 0.817-3.848 2.086-5.35 0.914-0.995 2.089-1.713 3.392-2.074 1.281-0.4 2.645-0.458 3.955-0.166 1.212 0.33 2.309 0.989 3.17 1.904s1.452 2.050 1.707 3.28c0.358 1.233 0.42 2.533 0.179 3.795s-0.775 2.448-1.562 3.463c-0.658 0.791-1.515 1.392-2.483 1.741-1.008 0.326-2.065 0.473-3.123 0.435-0.107 0.003-0.209 0.045-0.287 0.118s-0.126 0.172-0.136 0.279c-0.002 0.055 0.008 0.11 0.027 0.161s0.050 0.098 0.088 0.137 0.084 0.071 0.135 0.092c0.051 0.021 0.105 0.032 0.16 0.032 1.157 0.073 2.318-0.057 3.43-0.384 1.144-0.367 2.167-1.040 2.957-1.946 0.943-1.125 1.604-2.458 1.929-3.889s0.304-2.919-0.060-4.341z"></path>
            <path fill="#036" style="fill: var(--color1, #036)"
                d="M3.047 16.179c0.624 0.481 1.325 0.853 2.074 1.101 1.997 0.704 1.805 0.192 2.304 0.794l1.421 1.869 1.126 1.357c0.128 0.164 0.27 0.319 0.422 0.461 0.135 0.118 0.307 0.186 0.486 0.192 0.12 0.003 0.239-0.019 0.349-0.066s0.21-0.116 0.291-0.203c0.165-0.255 0.287-0.536 0.358-0.832l0.077-0.627-0.090-1.28-0.051-1.792c0.373 0.007 0.744-0.044 1.101-0.154 0.145-0.055 0.283-0.128 0.41-0.218 0.127-0.084 0.243-0.183 0.346-0.294 0.233-0.267 0.443-0.554 0.627-0.858 0.073-0.078 0.113-0.181 0.113-0.288s-0.040-0.21-0.113-0.288c-0.077-0.076-0.18-0.118-0.288-0.118s-0.211 0.043-0.288 0.118c-0.384 0.256-0.794 0.384-1.165 0.589-0.099 0.065-0.193 0.138-0.282 0.218-0.256 0.205-0.422 0.435-0.678 0.614s0 0-0.192 0c-0.054-0.003-0.108 0.004-0.159 0.021s-0.098 0.045-0.139 0.081c-0.040 0.036-0.073 0.079-0.097 0.127s-0.038 0.101-0.041 0.155l-0.179 2.035-0.115 1.19-0.998-0.934-1.69-1.536c-0.243-0.282-0.102-0.538-0.474-0.602-0.707-0.113-1.398-0.306-2.061-0.576-0.646-0.242-1.24-0.602-1.754-1.062-0.292-0.272-0.546-0.582-0.755-0.922-0.213-0.325-0.406-0.662-0.576-1.011-0.347-0.692-0.614-1.423-0.794-2.176-0.189-0.726-0.262-1.478-0.218-2.227 0.078-1.514 0.614-2.969 1.536-4.173 0.891-1.213 2.107-2.149 3.507-2.701 0.519-0.199 1.061-0.332 1.613-0.397 0.557-0.058 1.119-0.058 1.677 0 0.618 0.028 1.232 0.122 1.83 0.282 0.58 0.175 1.142 0.407 1.677 0.691 0.084 0.042 0.181 0.052 0.271 0.025s0.167-0.086 0.215-0.166c0.025-0.042 0.041-0.088 0.047-0.136s0.003-0.097-0.011-0.144c-0.013-0.047-0.036-0.090-0.066-0.128s-0.068-0.069-0.111-0.092c-0.582-0.335-1.195-0.613-1.83-0.832-0.623-0.218-1.266-0.372-1.92-0.461-0.619-0.089-1.245-0.115-1.869-0.077-0.639 0.040-1.27 0.156-1.882 0.346-1.688 0.534-3.172 1.572-4.252 2.975s-1.705 3.103-1.79 4.871c-0.016 0.866 0.101 1.729 0.346 2.56 0.25 0.822 0.584 1.615 0.998 2.368 0.254 0.5 0.554 0.976 0.896 1.421 0.236 0.331 0.506 0.635 0.806 0.909z"></path>
            <path fill="#036" style="fill: var(--color1, #036)"
                d="M19.2 13.107c0.006 0.054 0.023 0.106 0.050 0.153s0.062 0.089 0.105 0.122c0.043 0.033 0.092 0.058 0.144 0.072s0.107 0.018 0.161 0.011c0.941-0.020 1.857-0.299 2.65-0.806 0.296 0.162 0.61 0.291 0.934 0.384 0.54 0.159 1.092 0.275 1.651 0.346 0.055 0.019 0.113 0.027 0.17 0.022s0.114-0.022 0.164-0.050c0.051-0.028 0.095-0.066 0.13-0.113s0.059-0.099 0.072-0.156c0.013-0.056 0.013-0.115 0.002-0.172s-0.035-0.11-0.068-0.157c-0.034-0.047-0.077-0.086-0.127-0.115s-0.106-0.047-0.163-0.053c-0.409-0.123-0.811-0.268-1.203-0.435-0.199-0.107-0.392-0.227-0.576-0.358 0.168-0.186 0.317-0.388 0.448-0.602 0.2-0.355 0.355-0.733 0.461-1.126l0.243-1.971c0.448 0 0.909-0.077 1.357-0.141 0.287-0.040 0.569-0.104 0.845-0.192 0.052-0.013 0.101-0.037 0.144-0.069s0.079-0.073 0.107-0.119c0.027-0.046 0.045-0.098 0.053-0.151s0.004-0.108-0.009-0.16c-0.030-0.103-0.098-0.192-0.191-0.246s-0.203-0.072-0.308-0.048c-0.234 0.019-0.47 0.019-0.704 0-0.614 0-1.28-0.128-1.856-0.128h-1.178c-0.102-0.205-0.154-0.397-0.269-0.589-0.075-0.145-0.169-0.279-0.282-0.397-0.236-0.191-0.494-0.355-0.768-0.486-0.061-0.075-0.149-0.122-0.245-0.132s-0.192 0.019-0.267 0.080c-0.075 0.061-0.122 0.149-0.132 0.245s0.019 0.192 0.080 0.267c0.055 0.255 0.123 0.507 0.205 0.755 0.049 0.1 0.109 0.195 0.179 0.282 0.024 0.032 0.054 0.059 0.090 0.077l-0.64 0.090-1.178 0.218c-0.247 0.013-0.495 0.013-0.742 0-0.048-0.005-0.097-0.001-0.143 0.013s-0.089 0.037-0.126 0.068c-0.037 0.031-0.067 0.069-0.089 0.113s-0.035 0.090-0.038 0.139c-0.005 0.046-0.001 0.093 0.012 0.138s0.036 0.086 0.066 0.122c0.030 0.036 0.067 0.065 0.108 0.087s0.087 0.034 0.134 0.037l1.28 0.115c-0.006 0.111-0.006 0.222 0 0.333 0.022 0.363 0.078 0.723 0.166 1.075 0.139 0.582 0.358 1.143 0.653 1.664 0.141 0.213 0.304 0.41 0.486 0.589-0.516 0.382-1.104 0.657-1.728 0.806-0.060 0.009-0.118 0.032-0.168 0.066s-0.093 0.080-0.123 0.132c-0.031 0.053-0.049 0.112-0.054 0.172s0.004 0.122 0.025 0.179zM20.826 8.384v-0.141h1.549c0.512 0 0.858 0 1.28-0.115l-0.614 1.472c-0.21 0.431-0.472 0.835-0.781 1.203h-0.064c-0.046-0.053-0.088-0.109-0.128-0.166-0.377-0.451-0.691-0.95-0.934-1.485-0.126-0.246-0.228-0.503-0.307-0.768z"></path>
            <path fill="#036" style="fill: var(--color1, #036)"
                d="M7.347 6.759c0.209 0.019 0.419 0.019 0.627 0 0.205 0 0.397-0.077 0.602-0.115l0.755-0.179c0.052 0.013 0.106 0.017 0.16 0.009s0.105-0.025 0.151-0.053c0.046-0.027 0.087-0.064 0.119-0.107s0.056-0.092 0.069-0.144c0.015-0.051 0.020-0.105 0.015-0.158s-0.022-0.105-0.049-0.151c-0.026-0.047-0.062-0.087-0.104-0.12s-0.091-0.056-0.143-0.069l-0.986-0.205-0.512-0.077h-0.806c-0.41 0.090-0.768 0.243-1.165 0.333-0.078-0.002-0.155 0.012-0.227 0.042s-0.137 0.075-0.19 0.132c-0.053 0.057-0.094 0.124-0.119 0.198s-0.034 0.152-0.027 0.229l-0.115 3.098v2.406c0.021 0.285 0.129 0.557 0.307 0.781 0.137 0.155 0.307 0.277 0.498 0.357s0.397 0.115 0.603 0.104l0.922-0.128 0.794-0.141 1.498-0.192c0.095-0.033 0.174-0.1 0.222-0.188s0.063-0.19 0.041-0.288c-0.022-0.098-0.079-0.184-0.161-0.243s-0.182-0.085-0.281-0.074h-1.382l-0.781 0.013h-0.909c-0.007-0.060-0.007-0.12 0-0.179v-0.934l-0.154-1.28v-0.179c0.2 0.095 0.411 0.168 0.627 0.218 0.141 0.055 0.287 0.098 0.435 0.128 0.153 0.013 0.307 0.013 0.461 0 0.365-0.061 0.721-0.165 1.062-0.307 0.107-0.016 0.203-0.073 0.267-0.159s0.093-0.195 0.078-0.301c-0.008-0.054-0.026-0.106-0.054-0.153s-0.065-0.088-0.11-0.12c-0.044-0.032-0.094-0.055-0.147-0.068s-0.108-0.014-0.162-0.005c-0.32 0-0.614-0.141-0.96-0.179-0.217-0.025-0.436-0.025-0.653 0-0.315-0.032-0.633-0.028-0.947 0.013l-0.256-1.792c0.356 0.107 0.72 0.184 1.088 0.23z"></path>
            <path fill="#036" style="fill: var(--color1, #036)"
                d="M25.434 24.96c-1.28 0.397-2.778 0.691-4.173 1.152-0.95 0.291-1.867 0.677-2.739 1.152-3.84 2.099-3.226 3.904-3.277 2.714l-0.064-2.406v-1.574c0-0.525 0-1.062-0.077-1.587-0.090-1.062-0.269-2.099-0.461-3.162 0-0.095-0.038-0.186-0.105-0.253s-0.158-0.105-0.253-0.105c-0.095 0-0.186 0.038-0.253 0.105s-0.105 0.158-0.105 0.253c0 1.28-0.154 2.56-0.141 3.84 0 0.845 0.102 1.69 0.179 2.56l0.474 2.432v0.064l-0.896-0.614c-0.342-0.192-0.702-0.351-1.075-0.474-0.525-0.179-1.062-0.307-1.587-0.474-0.528-0.175-1.067-0.316-1.613-0.422-0.524-0.113-1.054-0.194-1.587-0.243l-2.061-0.243-1.075-0.243c-0.371-0.090-0.563-0.166-0.653-0.358-0.123-0.623-0.17-1.26-0.141-1.894l-0.41-2.778c-0.090-0.87-0.154-1.728-0.269-2.56-0.071-0.581-0.174-1.158-0.307-1.728-0.024-0.093-0.082-0.173-0.163-0.225s-0.178-0.072-0.272-0.056c-0.047 0.009-0.092 0.027-0.132 0.055s-0.073 0.062-0.099 0.103c-0.025 0.041-0.042 0.087-0.048 0.135s-0.003 0.096 0.010 0.143c0.084 0.521 0.14 1.047 0.166 1.574 0 0.845 0 1.69 0.064 2.56l0.141 2.88c-0.054 0.775-0.011 1.553 0.128 2.317 0.14 0.324 0.363 0.605 0.646 0.816s0.616 0.344 0.967 0.387l1.165 0.256c0.371 0.064 0.742 0.102 1.126 0.141h1.126c0.505 0.001 1.010 0.035 1.51 0.102 0.508 0.071 1.013 0.169 1.51 0.294 0.525 0.128 1.062 0.218 1.587 0.358 0.323 0.088 0.64 0.199 0.947 0.333l1.485 0.909c0 0 0.678 0.179 0.845-0.064 0.737-0.873 1.637-1.595 2.65-2.125 0.371-0.205 0.755-0.397 1.139-0.576 0.589-0.282 1.178-0.538 1.779-0.794 1.574-0.653 3.174-1.28 4.659-1.882 0.051-0.016 0.098-0.042 0.139-0.077s0.073-0.078 0.096-0.126c0.023-0.048 0.035-0.1 0.037-0.154s-0.008-0.106-0.028-0.156c-0.013-0.053-0.037-0.103-0.071-0.147s-0.076-0.080-0.124-0.106c-0.048-0.026-0.101-0.043-0.156-0.047s-0.11 0.002-0.162 0.019z"></path>
            <path fill="#036" style="fill: var(--color1, #036)"
                d="M26.88 18.688c0.003-0.047-0.003-0.095-0.019-0.14s-0.041-0.086-0.073-0.121c-0.032-0.035-0.072-0.063-0.115-0.082s-0.091-0.029-0.138-0.029c-0.048-0.002-0.096 0.006-0.141 0.024s-0.086 0.043-0.121 0.077c-0.035 0.033-0.062 0.073-0.081 0.118s-0.029 0.092-0.028 0.14c-0.146 0.782-0.24 1.573-0.282 2.368-0.026 0.46-0.026 0.922 0 1.382 0 0.704 0.128 1.37 0.115 2.061-0.007 0.054-0.004 0.109 0.011 0.161s0.039 0.102 0.072 0.144c0.033 0.043 0.075 0.079 0.122 0.105s0.099 0.044 0.153 0.050c0.052 0.007 0.105 0.004 0.156-0.010s0.099-0.037 0.14-0.069c0.042-0.032 0.077-0.072 0.103-0.118s0.043-0.096 0.049-0.149c0.179-0.689 0.303-1.391 0.371-2.099 0.025-0.302 0.025-0.606 0-0.909 0.019-0.294 0.019-0.589 0-0.883-0.102-0.691-0.294-1.344-0.294-2.022z"></path>
            <path fill="#343434" style="fill: var(--color2, #343434)"
                d="M20.723 22.989c-0.461 0.179-0.922 0.32-1.37 0.538-0.668 0.364-1.298 0.792-1.882 1.28-0.047 0.020-0.089 0.050-0.123 0.087s-0.060 0.082-0.076 0.13c-0.016 0.048-0.021 0.099-0.016 0.15s0.021 0.099 0.047 0.143 0.060 0.082 0.102 0.111c0.041 0.029 0.088 0.050 0.138 0.060s0.101 0.009 0.151-0.002c0.050-0.012 0.096-0.033 0.136-0.064 0.768-0.32 1.574-0.486 2.368-0.755 0.346-0.115 0.666-0.269 0.998-0.397s0.794-0.461 1.28-0.64c0.243-0.114 0.502-0.187 0.768-0.218 0.107 0.007 0.212-0.028 0.293-0.097s0.132-0.168 0.142-0.274c0.004-0.054-0.004-0.108-0.021-0.159s-0.045-0.098-0.080-0.139c-0.036-0.040-0.079-0.073-0.128-0.097s-0.101-0.038-0.155-0.041c-0.367-0.076-0.746-0.076-1.114 0-0.493 0.101-0.98 0.229-1.459 0.384z"></path>
            <path fill="#343434" style="fill: var(--color2, #343434)"
                d="M6.272 25.549c0.602 0.179 1.28 0.397 1.946 0.538 0.371 0.064 0.755 0.102 1.114 0.154 0.542 0.034 1.077 0.146 1.587 0.333 0.093 0.058 0.206 0.076 0.313 0.051s0.199-0.092 0.257-0.185c0.058-0.093 0.076-0.206 0.051-0.313s-0.092-0.199-0.185-0.257c-0.577-0.437-1.24-0.747-1.946-0.909-0.418-0.111-0.848-0.167-1.28-0.166-0.64 0-1.28 0.090-1.805 0.102-0.046-0.007-0.094-0.005-0.139 0.007s-0.088 0.033-0.125 0.061c-0.037 0.029-0.068 0.065-0.091 0.106s-0.037 0.086-0.042 0.133c0.003 0.091 0.041 0.177 0.105 0.241s0.15 0.102 0.241 0.105z"></path>
            <path fill="#343434" style="fill: var(--color2, #343434)"
                d="M7.68 23.271c0.192 0.065 0.389 0.116 0.589 0.153 0.192 0 0.397 0.077 0.589 0.115 0.486 0.077 0.96 0.115 1.421 0.205 0.1 0.037 0.211 0.033 0.308-0.011s0.173-0.126 0.21-0.226c0.037-0.1 0.033-0.211-0.011-0.308s-0.126-0.173-0.226-0.21c-0.432-0.268-0.886-0.5-1.357-0.691-0.201-0.084-0.406-0.157-0.614-0.218-0.214-0.053-0.433-0.087-0.653-0.102-0.514-0.021-1.028 0.009-1.536 0.089-0.046-0.005-0.093-0.001-0.138 0.012s-0.086 0.036-0.122 0.066-0.065 0.067-0.087 0.108c-0.021 0.042-0.034 0.087-0.037 0.134-0.004 0.052 0.004 0.104 0.022 0.153s0.046 0.094 0.082 0.131c0.036 0.038 0.080 0.067 0.128 0.086s0.1 0.029 0.152 0.026c0.41 0.128 0.819 0.333 1.28 0.487z"></path>
            <path fill="#343434" style="fill: var(--color2, #343434)"
                d="M21.914 20.339c-0.633-0.077-1.274-0.042-1.894 0.102-0.269 0.063-0.53 0.153-0.781 0.269-0.244 0.122-0.475 0.268-0.691 0.435-0.482 0.402-0.911 0.862-1.28 1.37-0.070 0.066-0.11 0.157-0.112 0.253s0.033 0.189 0.1 0.259c0.066 0.070 0.157 0.11 0.253 0.112s0.189-0.033 0.259-0.1c0.557-0.349 1.139-0.657 1.741-0.922 0.371-0.192 0.717-0.397 1.101-0.55 0.409-0.186 0.839-0.323 1.28-0.41 0.055-0.002 0.109-0.014 0.159-0.037s0.095-0.056 0.132-0.096c0.037-0.041 0.066-0.088 0.084-0.14s0.026-0.107 0.022-0.162c-0.006-0.098-0.046-0.19-0.114-0.261s-0.159-0.114-0.257-0.123z"></path>
        </symbol>
        <symbol id="icon-modules" viewBox="0 0 31 32">
            <path fill="#036" style="fill: var(--color1, #036)"
                d="M14.448 3.465c-0.154-0.41-0.256-0.346-2.714-2.381-0.094-0.063-0.208-0.088-0.32-0.070s-0.213 0.077-0.282 0.166c-0.070 0.089-0.103 0.201-0.093 0.314s0.062 0.218 0.145 0.294c3.11 2.701 2.33 1.638 2.278 3.494 0.027 1.755-0.080 3.509-0.32 5.248-0.094 0.592-0.227 1.178-0.397 1.754-0.075 0.099-0.16 0.19-0.256 0.269 0 0-0.128 0-0.205 0-1.241 0.064-2.484 0.064-3.725 0-1.656-0.022-3.31-0.133-4.954-0.333 0.717-2.355 0.678-5.44 0.909-10.099 1.574-0.294 4.224-0.614 4.826-0.678 0.105-0.022 0.197-0.085 0.256-0.175s0.079-0.2 0.057-0.305c-0.022-0.105-0.085-0.197-0.175-0.256s-0.2-0.079-0.305-0.057c-2.202 0.179-1.28 0.090-4.275 0.41-1.728 0.269-1.357-0.23-2.035 7.424-0.121 1.388-0.444 2.751-0.96 4.045-0.060 0.11-0.092 0.232-0.092 0.357s0.029 0.248 0.088 0.358c0.058 0.11 0.143 0.204 0.247 0.274s0.223 0.112 0.347 0.125c2.017 0.262 4.047 0.407 6.080 0.435 4.634-0.077 5.658 0.781 5.965-4.762 0-5.158 0.166-5.35-0.090-5.85z"></path>
            <path fill="#036" style="fill: var(--color1, #036)"
                d="M29.872 4.156c0-1.075-0.499-1.101-2.918-3.072-0.072-0.047-0.157-0.072-0.243-0.072s-0.171 0.025-0.243 0.072c-6.746-0.205-7.398-0.077-7.68 0.653s-0.499 6.477-1.024 8.96c-0.448 2.112-0.896 2.048-0.602 2.624 0.056 0.113 0.142 0.21 0.247 0.28s0.228 0.11 0.354 0.117c1.28 0.128 2.445 0.269 3.61 0.346s5.12 0.141 6.029 0c1.869-0.205 2.022-1.382 2.266-3.302 0.194-1.802 0.242-3.617 0.141-5.427 0-0.307 0.077-0.781 0.064-1.178zM28.835 4.309c0 0.358-0.090 0.742-0.102 0.973 0.067 2.195-0.126 4.391-0.576 6.541-0.008 0.152-0.051 0.299-0.124 0.432s-0.175 0.248-0.299 0.336c-0.243 0.179-5.939-0.077-6.246-0.102-0.858-0.064-1.702-0.154-2.56-0.243 0.742-2.406 0.704-5.53 0.934-10.061 2.186-0.277 4.389-0.397 6.592-0.358l1.536 1.28c0.781 0.755 0.883 0.589 0.845 1.203z"></path>
            <path fill="#036" style="fill: var(--color1, #036)"
                d="M12.822 19.733c-1.728-1.408-1.805-1.587-2.15-1.395-2.406-0.077-6.682-0.294-7.437 0.294s-0.563 8.896-1.856 11.187c-0.063 0.11-0.097 0.234-0.099 0.36s0.027 0.252 0.086 0.364 0.144 0.208 0.25 0.278c0.105 0.070 0.226 0.113 0.352 0.124 2.017 0.258 4.047 0.399 6.080 0.422 4.646-0.090 5.632 0.781 5.965-4.749 0-6.694 0.435-5.491-1.19-6.886zM13.014 21.602c0 0.358-0.090 0.742-0.102 0.973 0.067 2.195-0.126 4.391-0.576 6.541-0.090 0.371 0 0.461-0.422 0.768s-5.952-0.077-6.246-0.102c-0.858-0.064-1.702-0.154-2.56-0.243 0.717-2.33 0.678-5.030 0.934-10.061 2.198-0.281 4.415-0.396 6.63-0.346l1.536 1.28c0.806 0.717 0.87 0.576 0.806 1.19z"></path>
            <path fill="#036" style="fill: var(--color1, #036)"
                d="M28.080 19.733c-1.728-1.408-1.792-1.587-2.138-1.395-2.394-0.077-6.694-0.294-7.437 0.294s-0.525 8.742-1.856 11.187c-0.062 0.109-0.097 0.232-0.1 0.357s0.025 0.25 0.083 0.362c0.057 0.112 0.141 0.208 0.245 0.279s0.223 0.115 0.348 0.128c2.021 0.254 4.056 0.39 6.093 0.41 4.646-0.090 5.632 0.781 5.952-4.749 0-6.682 0.448-5.478-1.19-6.874zM28.374 21.602c0 0.358-0.102 0.742-0.102 0.973 0.068 2.196-0.129 4.392-0.589 6.541-0.005 0.152-0.046 0.301-0.12 0.434s-0.177 0.248-0.303 0.334c-0.23 0.179-5.939-0.077-6.246-0.102-0.845-0.064-1.69-0.154-2.56-0.243 0.73-2.33 0.691-5.12 0.947-10.061 2.194-0.281 4.406-0.397 6.618-0.346l1.536 1.28c0.678 0.717 0.819 0.576 0.819 1.19z"></path>
            <path fill="#343434" style="fill: var(--color2, #343434)"
                d="M8.406 5.769h1.203c1.907-0.23 2.125-0.154 2.125-0.435s-1.754-0.499-2.445-0.499h-1.28c-2.138 0.205-2.112 0.269-2.125 0.435 0.090 0.41 2.099 0.499 2.522 0.499z"></path>
            <path fill="#343434" style="fill: var(--color2, #343434)"
                d="M8.189 9.199h1.203c1.92-0.128 2.112 0 2.176-0.333s-1.741-0.538-2.394-0.538c-0.426-0.028-0.854-0.028-1.28 0-2.138 0.192-2.099 0.269-2.112 0.422-0.026 0.384 1.997 0.448 2.406 0.448z"></path>
            <path fill="#343434" style="fill: var(--color2, #343434)"
                d="M7.818 23.522h1.203c1.92-0.141 2.112 0 2.176-0.346s-1.754-0.499-2.432-0.512c-0.41 0-0.819 0-1.28 0.064-2.138 0.192-2.099 0.269-2.125 0.422-0.026 0.307 2.048 0.371 2.458 0.371z"></path>
            <path fill="#343434" style="fill: var(--color2, #343434)"
                d="M7.613 26.991h1.19c1.92-0.141 2.125-0.064 2.176-0.346s-1.741-0.499-2.432-0.512c-0.41 0-0.819 0-1.28 0.064-2.138 0.205-2.112 0.269-2.125 0.435 0.026 0.294 2.048 0.358 2.47 0.358z"></path>
            <path fill="#343434" style="fill: var(--color2, #343434)"
                d="M22.947 23.983c0.41 0 0.806 0 1.203-0.064 1.92-0.128 2.125-0.064 2.176-0.333s-1.741-0.512-2.432-0.512c-0.406-0.004-0.813 0.017-1.216 0.064-2.15 0.192-2.112 0.269-2.125 0.422-0.038 0.358 1.984 0.422 2.394 0.422z"></path>
            <path fill="#343434" style="fill: var(--color2, #343434)"
                d="M22.743 27.439c0.397 0 0.794 0 1.19-0.064 1.92-0.128 2.125-0.064 2.176-0.333s-1.741-0.512-2.432-0.512c-0.41 0-0.819 0-1.216 0.064-2.138 0.192-2.112 0.269-2.125 0.422-0.038 0.358 1.984 0.422 2.406 0.422z"></path>
            <path fill="#343434" style="fill: var(--color2, #343434)"
                d="M23.485 5.974h1.203c1.907-0.141 2.112-0.064 2.176-0.346s-1.754-0.499-2.445-0.512c-0.397 0-0.806 0-1.216 0.064-2.138 0.205-2.112 0.269-2.125 0.435-0.038 0.294 1.984 0.358 2.406 0.358z"></path>
            <path fill="#343434" style="fill: var(--color2, #343434)"
                d="M23.255 9.429c0.41 0 0.806 0 1.203-0.064 1.92-0.141 2.112 0 2.176-0.333s-1.754-0.512-2.432-0.512h-1.28c-2.138 0.205-2.099 0.269-2.112 0.435s2.048 0.474 2.445 0.474z"></path>
        </symbol>
        <symbol id="icon-online" viewBox="0 0 31 32">
            <path fill="#343434" style="fill: var(--color2, #343434)"
                d="M12.621 19.507c1.059 0.35 2.18 0.472 3.29 0.358 1.315-0.042 2.592-0.455 3.684-1.189s1.954-1.762 2.489-2.965c0.535-1.203 0.719-2.531 0.533-3.834s-0.736-2.527-1.586-3.531c-0.736-0.871-1.665-1.559-2.714-2.007s-2.188-0.644-3.326-0.574c-1.138 0.071-2.244 0.407-3.229 0.982s-1.822 1.372-2.444 2.328c-2.061 3.059-0.986 7.539 1.062 8.858 0.087 0.061 0.194 0.085 0.298 0.067s0.197-0.077 0.259-0.163c0.061-0.087 0.085-0.194 0.067-0.298s-0.077-0.197-0.163-0.259c-1.638-1.152-2.381-5.12-0.525-7.539 0.538-0.752 1.239-1.373 2.051-1.817s1.712-0.699 2.636-0.747 1.846 0.113 2.699 0.47c0.853 0.357 1.614 0.902 2.228 1.594 3.034 3.597 1.28 9.062-4.109 9.69-0.981 0.138-1.979 0.068-2.931-0.205-0.055-0.042-0.119-0.070-0.187-0.083s-0.138-0.008-0.204 0.012c-0.066 0.020-0.126 0.055-0.176 0.103s-0.087 0.107-0.11 0.172c-0.022 0.065-0.029 0.135-0.019 0.203s0.036 0.133 0.075 0.19c0.040 0.056 0.092 0.102 0.153 0.134s0.129 0.049 0.198 0.050z"></path>
            <path fill="#036" style="fill: var(--color1, #036)"
                d="M30.259 8.064c-0.154-1.395-0.090-4.186-1.178-4.954-2.445-1.741-7.68-1.28-11.277-1.395-4.454-0.154-9.229 0.205-13.594 0.32-0.063-0.011-0.127-0.008-0.188 0.009s-0.118 0.046-0.167 0.087c-0.049 0.041-0.088 0.092-0.114 0.149s-0.041 0.12-0.041 0.184c0 0.063 0.014 0.126 0.041 0.184s0.066 0.108 0.114 0.149c0.049 0.041 0.105 0.071 0.167 0.087s0.125 0.019 0.188 0.009c4.429 0 9.050-0.333 13.542-0.102 3.11 0.166 8.538-0.166 10.573 1.28 0.486 0.358 0.499 3.149 0.602 4.096 0.433 3.441 0.463 6.92 0.090 10.368-0.062 1.144-0.251 2.277-0.563 3.379-3.072 1.562-25.229 2.867-26.56 0.717-0.488-1.731-0.763-3.515-0.819-5.312-0.182-4.639 0.075-9.285 0.768-13.875 0.371-0.346-0.154-0.909-0.512-0.563-0.55 0.499-0.448 2.086-0.538 2.65-0.724 4.303-0.948 8.676-0.666 13.030 0.061 1.597 0.323 3.179 0.781 4.71 1.075 1.805 8.128 1.869 10.24 1.882-0.846 1.093-1.253 2.463-1.139 3.84l-2.765 0.192c-0.102 0-0.2 0.040-0.272 0.112s-0.112 0.17-0.112 0.272c0 0.102 0.040 0.199 0.112 0.271s0.17 0.113 0.272 0.113c2.56 0.090 4.506 0.346 7.68 0.32s5.197-0.294 7.77-0.486c0.063 0.011 0.127 0.008 0.188-0.009s0.118-0.046 0.167-0.087c0.049-0.041 0.088-0.092 0.114-0.149s0.041-0.12 0.041-0.184c0-0.064-0.014-0.126-0.041-0.184s-0.066-0.109-0.114-0.149c-0.049-0.041-0.105-0.071-0.167-0.087s-0.125-0.019-0.188-0.009h-2.355c-0.157-1.415-0.592-2.786-1.28-4.032 2.909-0.157 5.801-0.534 8.653-1.126 1.856-0.474 2.189-0.947 2.432-2.317 0.74-4.429 0.779-8.947 0.115-13.389zM19.353 28.928c-3.648-0.090-5.44-0.115-8.384 0 0.205-0.499 0.512-1.165 0.653-1.651 0.183-0.693 0.311-1.399 0.384-2.112 0-0.154 0.346 0.102 5.99-0.243 0.114 1.427 0.58 2.804 1.357 4.006z"></path>
            <path fill="#036" style="fill: var(--color1, #036)"
                d="M11.981 13.005c0 0-0.742 0.218-0.448 0.64 0.499 0.755 1.357 2.074 2.202 2.125 1.446 0.077 3.149-3.93 3.763-5.235 0.191-0.2 0.312-0.456 0.346-0.73-0.009-0.092-0.046-0.179-0.107-0.249s-0.141-0.12-0.231-0.142c-0.090-0.022-0.184-0.017-0.271 0.017s-0.16 0.093-0.211 0.17c-0.307 0.358-3.43 4.89-3.354 5.005-0.243 0.038-1.51-1.485-1.69-1.6z"></path>
        </symbol>
        <symbol id="icon-check" viewBox="0 0 31 32">
            <path
                d="M21.056 7.13c-0.119 0-0.235 0.041-0.328 0.115s-0.158 0.178-0.184 0.295c-0.333 0.474-4.557 6.4-5.696 8.23-0.371 0.576-0.794 1.178-1.165 1.702-0.422 0.602-0.806 1.152-1.139 1.69l-0.73 1.203-0.154 0.256c-1.446-2.266-3.418-3.84-3.84-3.674h-0.192v0.154c-0.044 0.115-0.044 0.243 0 0.358 0.532 2.017 1.778 3.773 3.507 4.941 0.133 0.102 0.294 0.16 0.461 0.166 0.167-0.005 0.329-0.063 0.461-0.166 0.192-0.154 1.28-1.843 2.086-2.995s1.613-2.56 2.15-3.405c0.538-0.845 4.186-6.4 4.608-7.117 0.666-1.024 0.666-1.19 0.666-1.28-0.010-0.129-0.068-0.25-0.163-0.337s-0.22-0.136-0.349-0.136z"></path>
            <path
                d="M15.629 0.64c-0.194 0.067-0.364 0.189-0.491 0.35s-0.205 0.355-0.226 0.559c-0.077 1.28 0 1.818 0.294 2.061 0.086 0.071 0.196 0.108 0.307 0.102h0.154c0.282-0.077 0.333-0.371 0.41-0.806 0.063-0.385 0.166-0.763 0.307-1.126 0.23-0.512 0.115-0.806 0-0.96-0.093-0.102-0.215-0.174-0.35-0.206s-0.276-0.023-0.405 0.026z"></path>
            <path
                d="M26.368 5.363c-0.185-0.089-0.392-0.123-0.597-0.098s-0.397 0.108-0.555 0.239c-0.934 0.832-1.28 1.28-1.28 1.664 0.012 0.080 0.043 0.157 0.089 0.224s0.108 0.122 0.18 0.16c0.063 0.017 0.129 0.017 0.192 0 0.25-0.043 0.482-0.158 0.666-0.333 0.318-0.244 0.667-0.446 1.037-0.602 0.538-0.205 0.653-0.486 0.666-0.691-0.007-0.122-0.048-0.239-0.118-0.338s-0.167-0.177-0.279-0.225z"></path>
            <path
                d="M30.72 16.269c-0.067-0.194-0.189-0.364-0.35-0.491s-0.355-0.205-0.559-0.226c-1.28-0.077-1.818 0-2.061 0.294-0.049 0.065-0.082 0.14-0.098 0.22s-0.013 0.162 0.008 0.241c0.077 0.282 0.371 0.333 0.806 0.41 0.398 0.061 0.789 0.163 1.165 0.307 0.163 0.084 0.342 0.132 0.525 0.141 0.159 0.004 0.314-0.051 0.435-0.154 0.091-0.098 0.151-0.22 0.174-0.352s0.007-0.267-0.046-0.39z"></path>
            <path
                d="M24.192 24.615c-0.080 0.012-0.157 0.043-0.224 0.089s-0.122 0.108-0.16 0.18c-0.141 0.243 0 0.486 0.282 0.858 0.244 0.318 0.446 0.667 0.602 1.037 0.205 0.538 0.486 0.653 0.691 0.666 0.13-0.009 0.254-0.054 0.358-0.131s0.184-0.183 0.231-0.304c0.089-0.185 0.123-0.392 0.098-0.597s-0.108-0.397-0.239-0.555c-0.806-0.896-1.267-1.28-1.638-1.242z"></path>
            <path
                d="M15.053 28.25c-0.282 0.077-0.333 0.371-0.41 0.806-0.060 0.398-0.163 0.789-0.307 1.165-0.23 0.512-0.115 0.806 0 0.96 0.059 0.058 0.129 0.105 0.206 0.135s0.159 0.046 0.242 0.044c0.097 0.018 0.197 0.018 0.294 0 0.195-0.066 0.366-0.187 0.493-0.348s0.205-0.356 0.224-0.561c0.077-1.28 0-1.818-0.294-2.061-0.059-0.056-0.13-0.098-0.208-0.122s-0.16-0.031-0.24-0.019z"></path>
            <path
                d="M6.477 24.448c-0.243-0.141-0.486 0-0.858 0.282-0.319 0.244-0.667 0.446-1.037 0.602-0.538 0.205-0.653 0.486-0.666 0.691 0 0.135 0.042 0.266 0.12 0.376s0.188 0.193 0.315 0.238c0.149 0.067 0.31 0.102 0.474 0.102 0.248 0.005 0.49-0.082 0.678-0.243 0.934-0.832 1.28-1.28 1.28-1.664-0.016-0.084-0.052-0.163-0.106-0.23s-0.123-0.12-0.201-0.154z"></path>
            <path
                d="M2.304 15.283c-0.398-0.060-0.789-0.163-1.165-0.307-0.525-0.23-0.806-0.115-0.96 0-0.091 0.095-0.152 0.215-0.175 0.345s-0.006 0.264 0.047 0.384c0.066 0.195 0.187 0.366 0.348 0.493s0.356 0.205 0.561 0.224h0.794c0.717 0 1.088-0.090 1.28-0.32 0.049-0.065 0.082-0.14 0.098-0.22s0.013-0.162-0.008-0.241c-0.090-0.23-0.384-0.282-0.819-0.358z"></path>
            <path
                d="M6.029 5.223c-0.205-0.538-0.486-0.653-0.691-0.666-0.135-0.002-0.268 0.040-0.378 0.118s-0.193 0.189-0.236 0.317c-0.089 0.185-0.123 0.392-0.098 0.597s0.108 0.397 0.239 0.555c0.794 0.896 1.28 1.28 1.6 1.28 0.080-0.012 0.157-0.043 0.224-0.089s0.122-0.108 0.16-0.18c0.141-0.243 0-0.486-0.282-0.858-0.224-0.334-0.405-0.695-0.538-1.075z"></path>
        </symbol>
    </defs>
</svg>